<svg width="42" height="42" viewBox="0 0 42 42" fill="none" xmlns="http://www.w3.org/2000/svg">
<path d="M20.529 7.22064L20.0871 7.6644C19.7942 7.95852 19.7942 8.43542 20.0871 8.7296L31.243 19.933H7.75C7.33581 19.933 7 20.2702 7 20.6862V21.3139C7 21.7298 7.33581 22.067 7.75 22.067H31.243L20.0871 33.2704C19.7942 33.5646 19.7942 34.0415 20.0871 34.3357L20.529 34.7794C20.8219 35.0735 21.2968 35.0735 21.5896 34.7794L34.7803 21.5326C35.0732 21.2385 35.0732 20.7616 34.7803 20.4674L21.5896 7.22064C21.2968 6.92645 20.8219 6.92645 20.529 7.22064Z" fill="white"/>
</svg>
