<svg width="42" height="42" viewBox="0 0 42 42" fill="none" xmlns="http://www.w3.org/2000/svg">
<path d="M11.641 7.22201L24.181 20.4638C24.4602 20.7588 24.4602 21.2357 24.181 21.5307L11.641 34.7725C11.3618 35.0675 10.9104 35.0675 10.6312 34.7725L10.2094 34.3269C9.9302 34.032 9.9302 33.555 10.2094 33.2601L21.8227 20.9973L10.2153 8.72819C9.93614 8.43323 9.93614 7.95627 10.2153 7.66131L10.6371 7.21573C10.9104 6.92705 11.3618 6.92705 11.641 7.22201ZM18.2348 7.22201L17.813 7.66759C17.5338 7.96255 17.5338 8.4395 17.813 8.73446L29.4264 20.9973L17.819 33.2663C17.5398 33.5613 17.5398 34.0382 17.819 34.3332L18.2407 34.7788C18.5199 35.0737 18.9714 35.0737 19.2506 34.7788L31.7906 21.537C32.0698 21.242 32.0698 20.7651 31.7906 20.4701L19.2506 7.22829C18.9654 6.92705 18.514 6.92705 18.2348 7.22201V7.22201Z" fill="white"/>
</svg>
