<svg width="42" height="42" viewBox="0 0 42 42" fill="none" xmlns="http://www.w3.org/2000/svg">
<path d="M14.3397 36.1667C12.4593 36.1667 10.5789 35.4208 9.14742 33.9289C6.28421 30.9453 6.28421 26.0905 9.1473 23.107L24.0461 7.58095C26.2821 5.25079 29.9203 5.25079 32.1564 7.58095C34.3923 9.91116 34.3923 13.7025 32.1564 16.0326L19.4998 29.222C17.8911 30.8987 15.2731 30.8989 13.6641 29.222C12.0553 27.5454 12.0553 24.8173 13.6641 23.1406L23.3458 13.0514C23.6122 12.7737 24.0441 12.7737 24.3105 13.0514L24.6323 13.3868C24.8987 13.6644 24.8987 14.1145 24.6323 14.3922L14.9507 24.4814C14.0513 25.4187 14.0513 26.9438 14.9508 27.8812C15.8502 28.8184 17.3137 28.8184 18.2132 27.8812L30.8697 14.6917C32.3962 13.101 32.3962 10.5126 30.8697 8.92165C29.343 7.33087 26.8593 7.33099 25.3328 8.92165L10.434 24.4478C8.2804 26.6921 8.2804 30.3438 10.434 32.5881C12.5877 34.8323 16.0919 34.8324 18.2454 32.5882L30.6242 19.6883C30.8906 19.4106 31.3225 19.4106 31.5889 19.6883L31.9108 20.0236C32.1772 20.3013 32.1772 20.7514 31.9108 21.0291L19.5321 33.9289C18.1006 35.4208 16.2202 36.1667 14.3397 36.1667Z" fill="white"/>
</svg>
