<svg width="42" height="42" viewBox="0 0 42 42" fill="none" xmlns="http://www.w3.org/2000/svg">
<path d="M21.5046 34.7872L21.9781 34.3593C22.2919 34.0757 22.2919 33.6158 21.9781 33.3322L10.0254 22.5289H35.1964C35.6402 22.5289 36 22.2037 36 21.8026V21.1974C36 20.7963 35.6402 20.4711 35.1964 20.4711H10.0254L21.9781 9.66778C22.2919 9.38417 22.2919 8.9243 21.9781 8.64062L21.5046 8.21271C21.1908 7.9291 20.682 7.9291 20.3682 8.21271L6.23535 20.9864C5.92155 21.27 5.92155 21.7299 6.23535 22.0136L20.3682 34.7873C20.682 35.0709 21.1908 35.0709 21.5046 34.7872V34.7872Z" fill="white"/>
</svg>
