<svg width="42" height="42" viewBox="0 0 42 42" fill="none" xmlns="http://www.w3.org/2000/svg">
<path d="M14.3397 36.1666C12.4593 36.1666 10.5789 35.4207 9.14742 33.9289C6.28421 30.9452 6.28421 26.0905 9.1473 23.1069L24.0461 7.58087C26.2821 5.25071 29.9203 5.25071 32.1564 7.58087C34.3923 9.91108 34.3923 13.7025 32.1564 16.0325L19.4998 29.222C17.8911 30.8987 15.2731 30.8988 13.6641 29.222C12.0553 27.5453 12.0553 24.8172 13.6641 23.1406L23.3458 13.0513C23.6122 12.7737 24.0441 12.7737 24.3105 13.0513L24.6323 13.3867C24.8987 13.6643 24.8987 14.1144 24.6323 14.3921L14.9507 24.4813C14.0513 25.4186 14.0513 26.9437 14.9508 27.8811C15.8502 28.8183 17.3137 28.8183 18.2132 27.8811L30.8697 14.6917C32.3962 13.1009 32.3962 10.5125 30.8697 8.92158C29.343 7.3308 26.8593 7.33092 25.3328 8.92158L10.434 24.4477C8.2804 26.692 8.2804 30.3437 10.434 32.588C12.5877 34.8323 16.0919 34.8323 18.2454 32.5881L30.6242 19.6882C30.8906 19.4106 31.3225 19.4106 31.5889 19.6882L31.9108 20.0236C32.1772 20.3012 32.1772 20.7513 31.9108 21.029L19.5321 33.9289C18.1006 35.4207 16.2202 36.1666 14.3397 36.1666Z" fill="white"/>
</svg>
