<svg width="42" height="42" viewBox="0 0 42 42" fill="none" xmlns="http://www.w3.org/2000/svg">
<path d="M29.5938 6.09391L22.2266 7.96202C21.4996 8.2093 21 8.92771 21 9.74808V28.0383C19.8347 27.1681 18.2145 26.6243 16.4167 26.6243C12.8726 26.6243 10 28.7233 10 31.3122C10 33.901 12.8726 36 16.4167 36C19.9607 36 22.8333 33.901 22.8333 31.3122V17.2486L30.7465 15.176C31.1115 15.0516 31.429 14.8128 31.654 14.4935C31.879 14.1742 32 13.7906 32 13.397V7.87295C31.9997 7.57664 31.9307 7.28462 31.7987 7.02085C31.6667 6.75708 31.4755 6.52905 31.2407 6.35546C31.0059 6.18187 30.7342 6.06767 30.448 6.0222C30.1617 5.97674 29.8689 6.00131 29.5938 6.09391ZM16.4167 34.1249C13.7159 34.1249 11.8333 32.6423 11.8333 31.3122C11.8333 29.982 13.7159 28.4995 16.4167 28.4995C19.1174 28.4995 21 29.982 21 31.3122C21 32.6423 19.1174 34.1249 16.4167 34.1249ZM30.1667 13.3976L22.8333 15.2727V9.74808H22.8013V9.74047L30.1667 7.87295V13.3976Z" fill="white"/>
</svg>
