<svg width="20" height="20" viewBox="0 0 20 20" fill="none" xmlns="http://www.w3.org/2000/svg">
<path d="M10 0C8.02219 0 6.08879 0.58649 4.4443 1.6853C2.79981 2.78412 1.51809 4.3459 0.761209 6.17317C0.00433284 8.00043 -0.193701 10.0111 0.192152 11.9509C0.578004 13.8907 1.53041 15.6725 2.92894 17.0711C4.32746 18.4696 6.10929 19.422 8.0491 19.8079C9.98891 20.1937 11.9996 19.9957 13.8268 19.2388C15.6541 18.4819 17.2159 17.2002 18.3147 15.5557C19.4135 13.9112 20 11.9778 20 10C20 7.34784 18.9464 4.8043 17.0711 2.92893C15.1957 1.05357 12.6522 0 10 0ZM17.79 6.129H14.464C14.1882 4.55926 13.5954 3.06215 12.722 1.729C13.8148 2.09268 14.8251 2.66858 15.6948 3.42364C16.5644 4.17871 17.2765 5.09808 17.79 6.129ZM13.548 10C13.5489 10.8633 13.4911 11.7256 13.375 12.581H6.625C6.39385 10.8684 6.39385 9.13257 6.625 7.42H13.375C13.491 8.27509 13.5488 9.13708 13.548 10ZM10 1.29C11.085 1.29 12.476 3.068 13.149 6.129H6.849C7.524 3.069 8.915 1.29 10 1.29ZM7.278 1.73C6.40484 3.0633 5.81215 4.56034 5.536 6.13H2.21C2.72352 5.09908 3.43556 4.17971 4.30526 3.42464C5.17496 2.66958 6.18519 2.09368 7.278 1.73ZM1.29 10C1.2891 9.12485 1.42093 8.25462 1.681 7.419H5.331C5.21993 8.27488 5.16315 9.13694 5.161 10C5.1608 10.8631 5.21726 11.7253 5.33 12.581H1.681C1.42093 11.7454 1.2891 10.8752 1.29 10ZM2.209 13.871H5.536C5.81182 15.4408 6.40454 16.9379 7.278 18.271C6.18501 17.9074 5.17458 17.3316 4.3047 16.5765C3.43483 15.8214 2.72264 14.902 2.209 13.871ZM10 18.71C8.915 18.71 7.524 16.932 6.851 13.871H13.151C12.478 16.931 11.086 18.71 10.002 18.71H10ZM12.722 18.27C13.5952 16.9367 14.1879 15.4397 14.464 13.87H17.79C17.2765 14.9009 16.5644 15.8203 15.6948 16.5754C14.8251 17.3304 13.8148 17.9063 12.722 18.27ZM14.67 12.58C14.7807 11.7244 14.8372 10.8627 14.839 10C14.8392 9.1369 14.7828 8.27471 14.67 7.419H18.319C18.8405 9.09982 18.8405 10.8992 18.319 12.58H14.67Z" fill="white"/>
</svg>
