<svg width="42" height="42" viewBox="0 0 42 42" fill="none" xmlns="http://www.w3.org/2000/svg">
<path d="M21 7C18.2311 7 15.5243 7.82109 13.222 9.35943C10.9197 10.8978 9.12531 13.0843 8.06569 15.6424C7.00606 18.2006 6.72881 21.0155 7.269 23.7313C7.8092 26.447 9.14257 28.9416 11.1005 30.8995C13.0584 32.8574 15.553 34.1908 18.2687 34.731C20.9845 35.2712 23.7994 34.9939 26.3576 33.9343C28.9157 32.8747 31.1022 31.0803 32.6406 28.778C34.1789 26.4757 35 23.7689 35 21C35 17.287 33.525 13.726 30.8995 11.1005C28.274 8.475 24.713 7 21 7ZM31.906 15.5806H27.2496C26.8634 13.383 26.0336 11.287 24.8108 9.4206C26.3407 9.92975 27.7551 10.736 28.9726 11.7931C30.1902 12.8502 31.1871 14.1373 31.906 15.5806ZM25.9672 21C25.9684 22.2086 25.8875 23.4158 25.725 24.6134H16.275C15.9514 22.2158 15.9514 19.7856 16.275 17.388H25.725C25.8874 18.5851 25.9683 19.7919 25.9672 21ZM21 8.806C22.519 8.806 24.4664 11.2952 25.4086 15.5806H16.5886C17.5336 11.2966 19.481 8.806 21 8.806ZM17.1892 9.422C15.9668 11.2886 15.137 13.3845 14.7504 15.582H10.094C10.8129 14.1387 11.8098 12.8516 13.0274 11.7945C14.2449 10.7374 15.6593 9.93115 17.1892 9.422ZM8.806 21C8.80473 19.7748 8.9893 18.5565 9.3534 17.3866H14.4634C14.3079 18.5848 14.2284 19.7917 14.2254 21C14.2251 22.2083 14.3042 23.4154 14.462 24.6134H9.3534C8.9893 23.4435 8.80473 22.2252 8.806 21ZM10.0926 26.4194H14.7504C15.1365 28.6171 15.9664 30.713 17.1892 32.5794C15.659 32.0704 14.2444 31.2642 13.0266 30.2071C11.8088 29.15 10.8117 27.8628 10.0926 26.4194ZM21 33.194C19.481 33.194 17.5336 30.7048 16.5914 26.4194H25.4114C24.4692 30.7034 22.5204 33.194 21.0028 33.194H21ZM24.8108 32.578C26.0332 30.7114 26.863 28.6155 27.2496 26.418H31.906C31.1871 27.8613 30.1902 29.1484 28.9726 30.2055C27.7551 31.2626 26.3407 32.0688 24.8108 32.578ZM27.538 24.612C27.693 23.4142 27.772 22.2078 27.7746 21C27.7749 19.7917 27.6958 18.5846 27.538 17.3866H32.6466C33.3766 19.7397 33.3766 22.2589 32.6466 24.612H27.538Z" fill="white"/>
</svg>
