<svg width="21" height="22" viewBox="0 0 21 22" fill="none" xmlns="http://www.w3.org/2000/svg">
<path d="M20.9999 10.9581C20.9999 10.2299 20.9408 9.49783 20.8149 8.78149H10.7114V12.9063H16.4972C16.2571 14.2367 15.4857 15.4135 14.3561 16.1613V18.8377H17.8079C19.8349 16.9721 20.9999 14.217 20.9999 10.9581Z" fill="#4285F4"/>
<path d="M10.7113 21.4235C13.6002 21.4235 16.0366 20.475 17.8117 18.8376L14.3599 16.1612C13.3995 16.8146 12.1597 17.1846 10.7152 17.1846C7.92073 17.1846 5.55131 15.2993 4.70116 12.7645H1.13916V15.5236C2.95755 19.1407 6.66124 21.4235 10.7113 21.4235Z" fill="#34A853"/>
<path d="M4.69751 12.7649C4.24881 11.4346 4.24881 9.99407 4.69751 8.66373V5.90466H1.13945C-0.379815 8.93138 -0.379815 12.4973 1.13945 15.524L4.69751 12.7649Z" fill="#FBBC04"/>
<path d="M10.7113 4.23969C12.2384 4.21608 13.7144 4.79072 14.8204 5.84554L17.8786 2.78734C15.9421 0.968955 13.372 -0.0307654 10.7113 0.00072184C6.66124 0.00072184 2.95755 2.28355 1.13916 5.90458L4.69722 8.66365C5.54344 6.12499 7.91679 4.23969 10.7113 4.23969Z" fill="#EA4335"/>
</svg>
