<svg width="42" height="42" viewBox="0 0 42 42" fill="none" xmlns="http://www.w3.org/2000/svg">
<path d="M36.813 19.882L33.0001 16.8788V12.2139C33.0001 12.118 32.9606 12.026 32.8902 11.9582C32.8199 11.8904 32.7245 11.8523 32.625 11.8523H31.3749C31.2754 11.8523 31.18 11.8904 31.1097 11.9582C31.0393 12.026 30.9998 12.118 30.9998 12.2139V15.3075L22.2606 8.42957C21.9032 8.1516 21.4578 8 20.9986 8C20.5394 8 20.094 8.1516 19.7366 8.42957L5.18415 19.882C5.08151 19.9626 5.01624 20.0793 5.00264 20.2062C4.98905 20.3332 5.02825 20.4602 5.11164 20.5594L5.74297 21.3074C5.82629 21.4059 5.94659 21.4687 6.07771 21.4821C6.20882 21.4956 6.34013 21.4585 6.44306 21.3791L8.99712 19.3673V34.0128C8.99712 34.2685 9.10249 34.5138 9.29005 34.6947C9.47761 34.8755 9.732 34.9771 9.99725 34.9771H17.9982C18.2635 34.9771 18.5179 34.8755 18.7054 34.6947C18.893 34.5138 18.9984 34.2685 18.9984 34.0128V26.2983L22.9988 26.3164V34.0357C22.9988 34.2914 23.1042 34.5367 23.2918 34.7176C23.4793 34.8984 23.7337 35 23.999 35L32 34.9801C32.2652 34.9801 32.5196 34.8785 32.7071 34.6977C32.8947 34.5168 33.0001 34.2716 33.0001 34.0158V19.3673L35.5541 21.3791C35.657 21.4597 35.7889 21.4976 35.9207 21.4845C36.0526 21.4714 36.1737 21.4083 36.2573 21.3092L36.8887 20.5612C36.9301 20.5119 36.961 20.4551 36.9796 20.3943C36.9982 20.3334 37.0042 20.2696 36.9971 20.2065C36.9901 20.1434 36.9702 20.0822 36.9386 20.0265C36.9071 19.9708 36.8644 19.9217 36.813 19.882V19.882ZM30.993 33.0563H30.9992L24.9985 33.0744V25.3496C24.9976 25.0947 24.8924 24.8503 24.7057 24.6697C24.519 24.4891 24.2659 24.3869 24.0015 24.3853L18.0007 24.3691C17.8691 24.3687 17.7387 24.3933 17.617 24.4416C17.4953 24.4899 17.3847 24.5608 17.2915 24.6504C17.1983 24.74 17.1244 24.8465 17.0739 24.9636C17.0235 25.0808 16.9975 25.2065 16.9975 25.3334V33.0563H10.9974V17.7936L20.9986 9.92425L30.9998 17.7936L30.993 33.0563Z" fill="white"/>
</svg>
