<svg width="42" height="42" viewBox="0 0 42 42" fill="none" xmlns="http://www.w3.org/2000/svg">
<path d="M21.0002 7.79024C28.2545 7.79024 34.2098 13.6658 34.2098 20.9999C34.2098 28.2953 28.3016 34.2096 21.0002 34.2096C13.7077 34.2096 7.79049 28.3043 7.79049 20.9999C7.79049 13.71 13.6983 7.79024 21.0002 7.79024ZM21.0002 5.83325C12.6244 5.83325 5.8335 12.6266 5.8335 20.9999C5.8335 29.3781 12.6244 36.1666 21.0002 36.1666C29.3759 36.1666 36.1668 29.3781 36.1668 20.9999C36.1668 12.6266 29.3759 5.83325 21.0002 5.83325ZM18.7986 26.8709H19.5324V19.5322H18.7986C18.3933 19.5322 18.0647 19.2036 18.0647 18.7983V18.3091C18.0647 17.9038 18.3933 17.5752 18.7986 17.5752H21.734C22.1393 17.5752 22.4679 17.9038 22.4679 18.3091V26.8709H23.2018C23.6071 26.8709 23.9356 27.1995 23.9356 27.6048V28.094C23.9356 28.4993 23.6071 28.8279 23.2018 28.8279H18.7986C18.3933 28.8279 18.0647 28.4993 18.0647 28.094V27.6048C18.0647 27.1995 18.3933 26.8709 18.7986 26.8709ZM21.0002 12.1935C19.9194 12.1935 19.0432 13.0696 19.0432 14.1505C19.0432 15.2313 19.9194 16.1074 21.0002 16.1074C22.081 16.1074 22.9572 15.2313 22.9572 14.1505C22.9572 13.0696 22.081 12.1935 21.0002 12.1935Z" fill="white"/>
</svg>
