<svg width="42" height="42" viewBox="0 0 42 42" fill="none" xmlns="http://www.w3.org/2000/svg">
<path d="M21 7.79032C28.2544 7.79032 34.2097 13.6659 34.2097 21C34.2097 28.2953 28.3014 34.2097 21 34.2097C13.7075 34.2097 7.79032 28.3043 7.79032 21C7.79032 13.71 13.6981 7.79032 21 7.79032ZM21 5.83333C12.6243 5.83333 5.83333 12.6267 5.83333 21C5.83333 29.3782 12.6243 36.1667 21 36.1667C29.3757 36.1667 36.1667 29.3782 36.1667 21C36.1667 12.6267 29.3757 5.83333 21 5.83333ZM18.7984 26.871H19.5323V19.5323H18.7984C18.3931 19.5323 18.0645 19.2037 18.0645 18.7984V18.3091C18.0645 17.9039 18.3931 17.5753 18.7984 17.5753H21.7339C22.1391 17.5753 22.4677 17.9039 22.4677 18.3091V26.871H23.2016C23.6069 26.871 23.9355 27.1996 23.9355 27.6048V28.0941C23.9355 28.4994 23.6069 28.828 23.2016 28.828H18.7984C18.3931 28.828 18.0645 28.4994 18.0645 28.0941V27.6048C18.0645 27.1996 18.3931 26.871 18.7984 26.871ZM21 12.1935C19.9192 12.1935 19.043 13.0697 19.043 14.1505C19.043 15.2313 19.9192 16.1075 21 16.1075C22.0808 16.1075 22.957 15.2313 22.957 14.1505C22.957 13.0697 22.0808 12.1935 21 12.1935Z" fill="white"/>
</svg>
