<svg width="42" height="42" viewBox="0 0 42 42" fill="none" xmlns="http://www.w3.org/2000/svg">
<path d="M6.46875 19.1228H22.4062C22.5306 19.1228 22.6498 19.0734 22.7377 18.9855C22.8256 18.8976 22.875 18.7784 22.875 18.6541V17.7166C22.875 17.5922 22.8256 17.473 22.7377 17.3851C22.6498 17.2972 22.5306 17.2478 22.4062 17.2478H6.46875C6.34443 17.2478 6.2252 17.2972 6.13729 17.3851C6.04939 17.473 6 17.5922 6 17.7166V18.6541C6 18.7784 6.04939 18.8976 6.13729 18.9855C6.2252 19.0734 6.34443 19.1228 6.46875 19.1228ZM15.375 25.2166C15.375 25.0922 15.3256 24.973 15.2377 24.8851C15.1498 24.7972 15.0306 24.7478 14.9062 24.7478H6.46875C6.34443 24.7478 6.2252 24.7972 6.13729 24.8851C6.04939 24.973 6 25.0922 6 25.2166V26.1541C6 26.2784 6.04939 26.3976 6.13729 26.4855C6.2252 26.5734 6.34443 26.6228 6.46875 26.6228H14.9062C15.0306 26.6228 15.1498 26.5734 15.2377 26.4855C15.3256 26.3976 15.375 26.2784 15.375 26.1541V25.2166ZM6.46875 11.6228H22.4062C22.5306 11.6228 22.6498 11.5734 22.7377 11.4855C22.8256 11.3976 22.875 11.2784 22.875 11.1541V10.2166C22.875 10.0922 22.8256 9.97301 22.7377 9.88511C22.6498 9.7972 22.5306 9.74781 22.4062 9.74781H6.46875C6.34443 9.74781 6.2252 9.7972 6.13729 9.88511C6.04939 9.97301 6 10.0922 6 10.2166V11.1541C6 11.2784 6.04939 11.3976 6.13729 11.4855C6.2252 11.5734 6.34443 11.6228 6.46875 11.6228ZM33.5391 6.0939L27.8795 7.96187C27.1359 8.20914 26.625 8.9275 26.625 9.74781V28.0367C25.4332 27.1666 23.7762 26.6228 21.9375 26.6228C18.3129 26.6228 15.375 28.7216 15.375 31.3103C15.375 33.899 18.3129 35.9978 21.9375 35.9978C25.5621 35.9978 28.5 33.899 28.5 31.3103V17.2478L34.718 15.1754C35.0913 15.0509 35.416 14.8121 35.6461 14.4928C35.8762 14.1736 36 13.79 36 13.3964V7.87281C35.9997 7.57652 35.9291 7.28453 35.7941 7.02078C35.6591 6.75702 35.4636 6.52901 35.2234 6.35543C34.9833 6.18186 34.7055 6.06766 34.4127 6.0222C34.1199 5.97674 33.8205 6.00131 33.5391 6.0939V6.0939ZM21.9375 34.1228C19.1754 34.1228 17.25 32.6404 17.25 31.3103C17.25 29.9802 19.1754 28.4978 21.9375 28.4978C24.6996 28.4978 26.625 29.9802 26.625 31.3103C26.625 32.6404 24.6996 34.1228 21.9375 34.1228ZM34.125 13.397L28.5 15.272V9.74781H28.4672V9.74019L34.125 7.87281V13.397Z" fill="white"/>
</svg>
