<svg width="42" height="42" viewBox="0 0 42 42" fill="none" xmlns="http://www.w3.org/2000/svg">
<path d="M21 11.5208C17.7835 11.5208 15.1667 14.0722 15.1667 17.2083C15.1667 20.3445 17.7835 22.8958 21 22.8958C24.2165 22.8958 26.8333 20.3445 26.8333 17.2083C26.8333 14.0722 24.2165 11.5208 21 11.5208ZM21 21C18.8557 21 17.1111 19.2991 17.1111 17.2083C17.1111 15.1176 18.8557 13.4167 21 13.4167C23.1444 13.4167 24.8889 15.1176 24.8889 17.2083C24.8889 19.2991 23.1444 21 21 21ZM21 5.83333C14.5567 5.83333 9.33334 10.9261 9.33334 17.2083C9.33334 21.7947 10.9721 23.0754 19.801 35.5547C20.3803 36.3706 21.6196 36.3707 22.1991 35.5547C31.0279 23.0754 32.6667 21.7947 32.6667 17.2083C32.6667 10.9261 27.4434 5.83333 21 5.83333ZM21 33.9113C12.5359 21.9768 11.2778 21.0293 11.2778 17.2083C11.2778 14.6763 12.2891 12.2959 14.1254 10.5056C15.9617 8.71517 18.4031 7.72916 21 7.72916C23.5969 7.72916 26.0384 8.71517 27.8747 10.5056C29.7109 12.2959 30.7222 14.6763 30.7222 17.2083C30.7222 21.029 29.4649 21.9758 21 33.9113Z" fill="white"/>
</svg>
