<svg width="42" height="42" viewBox="0 0 42 42" fill="none" xmlns="http://www.w3.org/2000/svg">
<path d="M20.9997 11.5208C17.7831 11.5208 15.1663 14.0722 15.1663 17.2083C15.1663 20.3445 17.7831 22.8959 20.9997 22.8959C24.2162 22.8959 26.833 20.3445 26.833 17.2083C26.833 14.0722 24.2162 11.5208 20.9997 11.5208ZM20.9997 21C18.8553 21 17.1108 19.2991 17.1108 17.2083C17.1108 15.1176 18.8553 13.4167 20.9997 13.4167C23.144 13.4167 24.8886 15.1176 24.8886 17.2083C24.8886 19.2991 23.144 21 20.9997 21ZM20.9997 5.83334C14.5563 5.83334 9.33301 10.9261 9.33301 17.2083C9.33301 21.7947 10.9718 23.0754 19.8007 35.5547C20.38 36.3706 21.6193 36.3707 22.1987 35.5547C31.0275 23.0754 32.6663 21.7947 32.6663 17.2083C32.6663 10.9261 27.443 5.83334 20.9997 5.83334ZM20.9997 33.9113C12.5356 21.9768 11.2775 21.0293 11.2775 17.2083C11.2775 14.6763 12.2887 12.2959 14.125 10.5056C15.9613 8.71519 18.4027 7.72918 20.9997 7.72918C23.5966 7.72918 26.038 8.71519 27.8743 10.5056C29.7106 12.2959 30.7219 14.6763 30.7219 17.2083C30.7219 21.029 29.4646 21.9758 20.9997 33.9113Z" fill="white"/>
</svg>
