<svg width="42" height="42" viewBox="0 0 42 42" fill="none" xmlns="http://www.w3.org/2000/svg">
<path d="M35.2125 8.2H13.6875C12.8385 8.2 12.15 8.83085 12.15 9.60921V14.35H18.3V9.7375H30.6V23.575H29.0625V25.1125H35.2125C36.0615 25.1125 36.75 24.4816 36.75 23.7033V9.60921C36.75 8.83085 36.0615 8.2 35.2125 8.2ZM16.7625 12.8125H13.6875V9.7375H16.7625V12.8125ZM35.2125 23.575H32.1375V20.5H35.2125V23.575ZM35.2125 18.9625H32.1375V14.35H35.2125V18.9625ZM35.2125 12.8125H32.1375V9.7375H35.2125V12.8125ZM25.9875 15.8875H7.5375C7.12973 15.8875 6.73866 16.0495 6.45032 16.3378C6.16199 16.6262 6 17.0172 6 17.425V31.2625C6 31.6703 6.16199 32.0613 6.45032 32.3497C6.73866 32.638 7.12973 32.8 7.5375 32.8H25.9875C26.3953 32.8 26.7863 32.638 27.0747 32.3497C27.363 32.0613 27.525 31.6703 27.525 31.2625V17.425C27.525 17.0172 27.363 16.6262 27.0747 16.3378C26.7863 16.0495 26.3953 15.8875 25.9875 15.8875ZM25.9875 31.2625H7.5375V30.1094L11.4624 27.166L15.3062 29.0879L21.4005 24.5167L25.9875 27.5739V31.2625ZM25.9875 25.7261L21.3495 22.6338L15.1438 27.2876L11.3001 25.3657L7.5375 28.1875V17.425H25.9875V25.7261ZM11.3812 23.575C11.8374 23.575 12.2833 23.4397 12.6625 23.1863C13.0418 22.9329 13.3374 22.5727 13.5119 22.1513C13.6865 21.7299 13.7322 21.2662 13.6432 20.8188C13.5542 20.3715 13.3346 19.9605 13.012 19.638C12.6895 19.3154 12.2785 19.0958 11.8312 19.0068C11.3838 18.9178 10.9201 18.9635 10.4987 19.1381C10.0773 19.3126 9.71709 19.6082 9.46367 19.9875C9.21026 20.3667 9.075 20.8126 9.075 21.2687C9.075 21.8804 9.31798 22.467 9.75049 22.8995C10.183 23.332 10.7696 23.575 11.3812 23.575ZM11.3812 20.5C11.5333 20.5 11.6819 20.5451 11.8083 20.6296C11.9348 20.714 12.0333 20.8341 12.0915 20.9746C12.1497 21.115 12.1649 21.2696 12.1352 21.4187C12.1056 21.5678 12.0324 21.7048 11.9248 21.8123C11.8173 21.9198 11.6803 21.9931 11.5312 22.0227C11.3821 22.0524 11.2275 22.0372 11.0871 21.979C10.9466 21.9208 10.8265 21.8223 10.7421 21.6958C10.6576 21.5694 10.6125 21.4208 10.6125 21.2687C10.6125 21.0649 10.6935 20.8693 10.8377 20.7252C10.9818 20.581 11.1774 20.5 11.3812 20.5Z" fill="white"/>
</svg>
