<svg width="42" height="42" viewBox="0 0 42 42" fill="none" xmlns="http://www.w3.org/2000/svg">
<g clip-path="url(#clip0)">
<path d="M32.7963 15.3854H27.7407V10.3542C27.7407 8.50413 26.2293 7 24.3704 7H9.2037C7.34473 7 5.83333 8.50413 5.83333 10.3542V18.7396C5.83333 20.5896 7.34473 22.0938 9.2037 22.0938H10.8889V24.819C10.8889 25.1911 11.1943 25.4479 11.5208 25.4479C11.6472 25.4479 11.7789 25.4112 11.8947 25.3221L15.9444 23.0424V27.125C15.9444 28.975 17.4558 30.4792 19.3148 30.4792H24.3704L30.1053 33.7076C30.2211 33.7914 30.3528 33.8333 30.4792 33.8333C30.8057 33.8333 31.1111 33.5765 31.1111 33.2044V30.4792H32.7963C34.6553 30.4792 36.1667 28.975 36.1667 27.125V18.7396C36.1667 16.8896 34.6553 15.3854 32.7963 15.3854ZM9.2037 20.4167C8.27685 20.4167 7.51852 19.662 7.51852 18.7396V10.3542C7.51852 9.43177 8.27685 8.67708 9.2037 8.67708H24.3704C25.2972 8.67708 26.0556 9.43177 26.0556 10.3542V18.7396C26.0556 19.662 25.2972 20.4167 24.3704 20.4167H17.1873L16.8028 20.6368L12.5741 23.0161V20.4167H9.2037ZM34.4815 27.125C34.4815 28.0474 33.7231 28.8021 32.7963 28.8021H29.4259V31.4016L25.2024 29.0222L24.818 28.8021H19.3148C18.388 28.8021 17.6296 28.0474 17.6296 27.125V22.0938H24.3704C26.2293 22.0938 27.7407 20.5896 27.7407 18.7396V17.0625H32.7963C33.7231 17.0625 34.4815 17.8172 34.4815 18.7396V27.125Z" fill="white"/>
</g>
<defs>
<clipPath id="clip0">
<rect width="30.3333" height="26.8333" fill="white" transform="translate(5.83333 7)"/>
</clipPath>
</defs>
</svg>
