<svg width="42" height="42" viewBox="0 0 42 42" fill="none" xmlns="http://www.w3.org/2000/svg">
<g clip-path="url(#clip0)">
<path d="M32.7965 15.3854H27.7409V10.3542C27.7409 8.50413 26.2295 7 24.3705 7H9.20387C7.3449 7 5.8335 8.50413 5.8335 10.3542V18.7396C5.8335 20.5896 7.3449 22.0938 9.20387 22.0938H10.8891V24.819C10.8891 25.1911 11.1945 25.4479 11.521 25.4479C11.6474 25.4479 11.779 25.4112 11.8949 25.3221L15.9446 23.0424V27.125C15.9446 28.975 17.456 30.4792 19.315 30.4792H24.3705L30.1054 33.7076C30.2213 33.7914 30.3529 33.8333 30.4793 33.8333C30.8058 33.8333 31.1113 33.5765 31.1113 33.2044V30.4792H32.7965C34.6554 30.4792 36.1668 28.975 36.1668 27.125V18.7396C36.1668 16.8896 34.6554 15.3854 32.7965 15.3854ZM9.20387 20.4167C8.27701 20.4167 7.51868 19.662 7.51868 18.7396V10.3542C7.51868 9.43177 8.27701 8.67708 9.20387 8.67708H24.3705C25.2974 8.67708 26.0557 9.43177 26.0557 10.3542V18.7396C26.0557 19.662 25.2974 20.4167 24.3705 20.4167H17.1874L16.803 20.6368L12.5742 23.0161V20.4167H9.20387ZM34.4816 27.125C34.4816 28.0474 33.7233 28.8021 32.7965 28.8021H29.4261V31.4016L25.2026 29.0222L24.8182 28.8021H19.315C18.3881 28.8021 17.6298 28.0474 17.6298 27.125V22.0938H24.3705C26.2295 22.0938 27.7409 20.5896 27.7409 18.7396V17.0625H32.7965C33.7233 17.0625 34.4816 17.8172 34.4816 18.7396V27.125Z" fill="white"/>
</g>
<defs>
<clipPath id="clip0">
<rect width="30.3333" height="26.8333" fill="white" transform="translate(5.8335 7)"/>
</clipPath>
</defs>
</svg>
