<svg width="42" height="42" viewBox="0 0 42 42" fill="none" xmlns="http://www.w3.org/2000/svg">
<path d="M33.25 19.25C35.6672 19.25 37.625 17.2922 37.625 14.875C37.625 12.4578 35.6672 10.5 33.25 10.5C30.8328 10.5 28.875 12.4578 28.875 14.875C28.875 17.2922 30.8328 19.25 33.25 19.25ZM33.25 12.25C34.6992 12.25 35.875 13.4258 35.875 14.875C35.875 16.3242 34.6992 17.5 33.25 17.5C31.8008 17.5 30.625 16.3242 30.625 14.875C30.625 13.4258 31.8008 12.25 33.25 12.25ZM21 21C24.3852 21 27.125 18.2602 27.125 14.875C27.125 11.4898 24.3852 8.75 21 8.75C17.6148 8.75 14.875 11.4898 14.875 14.875C14.875 18.2602 17.6148 21 21 21ZM21 10.5C23.4117 10.5 25.375 12.4633 25.375 14.875C25.375 17.2867 23.4117 19.25 21 19.25C18.5883 19.25 16.625 17.2867 16.625 14.875C16.625 12.4633 18.5883 10.5 21 10.5ZM34.3438 21H32.1562C31.325 21 30.5539 21.2625 29.9086 21.7055C30.4227 22.0555 30.8875 22.4656 31.2977 22.9305C31.5656 22.8156 31.8555 22.75 32.1562 22.75H34.3438C35.6672 22.75 36.75 23.9258 36.75 25.375C36.75 25.8563 37.1437 26.25 37.625 26.25C38.1063 26.25 38.5 25.8563 38.5 25.375C38.5 22.9633 36.6352 21 34.3438 21V21ZM8.75 19.25C11.1672 19.25 13.125 17.2922 13.125 14.875C13.125 12.4578 11.1672 10.5 8.75 10.5C6.33281 10.5 4.375 12.4578 4.375 14.875C4.375 17.2922 6.33281 19.25 8.75 19.25ZM8.75 12.25C10.1992 12.25 11.375 13.4258 11.375 14.875C11.375 16.3242 10.1992 17.5 8.75 17.5C7.30078 17.5 6.125 16.3242 6.125 14.875C6.125 13.4258 7.30078 12.25 8.75 12.25ZM25.3805 22.0938C23.5539 22.0938 23.1 22.75 21 22.75C18.9 22.75 18.4461 22.0938 16.6195 22.0938C14.6344 22.0938 12.7039 22.9797 11.5719 24.6586C10.8938 25.6648 10.5 26.8734 10.5 28.175V30.625C10.5 32.0742 11.6758 33.25 13.125 33.25H28.875C30.3242 33.25 31.5 32.0742 31.5 30.625V28.175C31.5 26.8734 31.1062 25.6648 30.4281 24.6586C29.2961 22.9797 27.3656 22.0938 25.3805 22.0938V22.0938ZM29.75 30.625C29.75 31.1063 29.3563 31.5 28.875 31.5H13.125C12.6437 31.5 12.25 31.1063 12.25 30.625V28.175C12.25 27.2672 12.518 26.3867 13.0211 25.6375C13.7758 24.5164 15.1211 23.8438 16.6141 23.8438C18.1125 23.8438 18.6484 24.5 21 24.5C23.3516 24.5 23.8875 23.8438 25.3805 23.8438C26.8734 23.8438 28.2187 24.5164 28.9734 25.6375C29.4766 26.3867 29.7445 27.2672 29.7445 28.175V30.625H29.75ZM12.0914 21.7055C11.4406 21.2625 10.6695 21 9.84375 21H7.65625C5.36484 21 3.5 22.9633 3.5 25.375C3.5 25.8563 3.89375 26.25 4.375 26.25C4.85625 26.25 5.25 25.8563 5.25 25.375C5.25 23.9258 6.33281 22.75 7.65625 22.75H9.84375C10.1445 22.75 10.4344 22.8156 10.7023 22.9305C11.1125 22.4656 11.5828 22.0555 12.0914 21.7055V21.7055Z" fill="white"/>
</svg>
