<svg width="42" height="42" viewBox="0 0 42 42" fill="none" xmlns="http://www.w3.org/2000/svg">
<path d="M26.2 22.875C24.5344 22.875 23.7335 23.8125 21 23.8125C18.2665 23.8125 17.4714 22.875 15.8 22.875C11.4937 22.875 8 26.4023 8 30.75V33.1875C8 34.7402 9.24777 36 10.7857 36H31.2143C32.7522 36 34 34.7402 34 33.1875V30.75C34 26.4023 30.5063 22.875 26.2 22.875ZM32.1429 33.1875C32.1429 33.7031 31.725 34.125 31.2143 34.125H10.7857C10.275 34.125 9.85714 33.7031 9.85714 33.1875V30.75C9.85714 27.4395 12.521 24.75 15.8 24.75C16.9375 24.75 18.0692 25.6875 21 25.6875C23.925 25.6875 25.0625 24.75 26.2 24.75C29.479 24.75 32.1429 27.4395 32.1429 30.75V33.1875ZM21 21C25.1031 21 28.4286 17.6426 28.4286 13.5C28.4286 9.35742 25.1031 6 21 6C16.8969 6 13.5714 9.35742 13.5714 13.5C13.5714 17.6426 16.8969 21 21 21ZM21 7.875C24.0701 7.875 26.5714 10.4004 26.5714 13.5C26.5714 16.5996 24.0701 19.125 21 19.125C17.9299 19.125 15.4286 16.5996 15.4286 13.5C15.4286 10.4004 17.9299 7.875 21 7.875Z" fill="white"/>
</svg>
