<svg width="42" height="42" viewBox="0 0 42 42" fill="none" xmlns="http://www.w3.org/2000/svg">
<path d="M35.0585 12.5585L29.4415 6.94145C28.8387 6.33865 28.0211 6 27.1686 6H9.21429C7.43906 6 6 7.43906 6 9.21429V32.7857C6 34.5609 7.43906 36 9.21429 36H32.7857C34.5609 36 36 34.5609 36 32.7857V14.8314C36 13.9789 35.6613 13.1613 35.0585 12.5585ZM25.2857 8.14286V14.5714H12.4286V8.14286H25.2857ZM33.8571 32.7857C33.8571 33.3765 33.3765 33.8571 32.7857 33.8571H9.21429C8.62353 33.8571 8.14286 33.3765 8.14286 32.7857V9.21429C8.14286 8.62353 8.62353 8.14286 9.21429 8.14286H10.2857V15.1071C10.2857 15.9948 11.0052 16.7143 11.8929 16.7143H25.8214C26.709 16.7143 27.4286 15.9948 27.4286 15.1071V8.17574C27.617 8.22223 27.7891 8.31938 27.9263 8.45665L33.5433 14.0737C33.6432 14.173 33.7223 14.2911 33.7761 14.4211C33.83 14.5512 33.8575 14.6906 33.8571 14.8314V32.7857ZM21 19.3929C17.7507 19.3929 15.1071 22.0364 15.1071 25.2857C15.1071 28.535 17.7507 31.1786 21 31.1786C24.2493 31.1786 26.8929 28.535 26.8929 25.2857C26.8929 22.0364 24.2493 19.3929 21 19.3929ZM21 29.0357C18.9322 29.0357 17.25 27.3535 17.25 25.2857C17.25 23.2179 18.9322 21.5357 21 21.5357C23.0678 21.5357 24.75 23.2179 24.75 25.2857C24.75 27.3535 23.0678 29.0357 21 29.0357Z" fill="white"/>
</svg>
