<svg width="42" height="42" viewBox="0 0 42 42" fill="none" xmlns="http://www.w3.org/2000/svg">
<path d="M35.7935 34.2174L28.2352 26.6591C28.1005 26.5244 27.9247 26.4541 27.7372 26.4541H27.1337C29.1434 24.2804 30.3738 21.3801 30.3738 18.1869C30.3738 11.4548 24.919 6 18.1869 6C11.4548 6 6 11.4548 6 18.1869C6 24.919 11.4548 30.3738 18.1869 30.3738C21.3801 30.3738 24.2804 29.1434 26.4541 27.1396V27.7372C26.4541 27.9247 26.5302 28.1005 26.6591 28.2352L34.2174 35.7935C34.4928 36.0688 34.938 36.0688 35.2134 35.7935L35.7935 35.2134C36.0688 34.938 36.0688 34.4928 35.7935 34.2174ZM18.1869 28.4989C12.486 28.4989 7.87491 23.8878 7.87491 18.1869C7.87491 12.486 12.486 7.87491 18.1869 7.87491C23.8878 7.87491 28.4989 12.486 28.4989 18.1869C28.4989 23.8878 23.8878 28.4989 18.1869 28.4989Z" fill="white"/>
</svg>
