<svg width="42" height="42" viewBox="0 0 42 42" fill="none" xmlns="http://www.w3.org/2000/svg">
<path d="M31.1877 6.25349L4.93671 21.3934C3.589 22.1727 3.72377 24.1589 5.15937 24.7507L13.3745 28.1489V34.1252C13.3745 35.8947 15.5895 36.6622 16.6969 35.3146L20.2537 30.9906L27.6602 34.049C28.7794 34.5119 30.0451 33.803 30.2267 32.6018L33.9769 8.16355C34.2171 6.59918 32.5354 5.47423 31.1877 6.25349ZM15.2496 34.1252V28.9223L18.4431 30.2406L15.2496 34.1252ZM28.3751 32.3148L16.2926 27.3228L27.9825 13.5071C28.2638 13.1789 27.8126 12.7336 27.4845 13.0149L12.5249 25.7643L5.87424 23.0222L32.1253 7.87646L28.3751 32.3148Z" fill="white"/>
</svg>
