<svg width="42" height="42" viewBox="0 0 42 42" fill="none" xmlns="http://www.w3.org/2000/svg">
<path d="M35.2442 23.792L33.1952 22.5774C33.324 21.53 33.324 20.47 33.1952 19.4226L35.2442 18.208C35.8459 17.8513 36.1361 17.1175 35.9383 16.4337C35.2337 13.9983 33.9794 11.8061 32.3231 10.0082C31.8435 9.48756 31.0779 9.37363 30.4735 9.73195L28.4275 10.9447C27.6091 10.3052 26.7152 9.77456 25.7672 9.36537V6.93866C25.7672 6.22059 25.2863 5.59646 24.6057 5.43111C22.2404 4.85633 19.7601 4.85627 17.3943 5.43111C16.7137 5.59646 16.2328 6.22053 16.2328 6.93866V9.36537C15.2848 9.77455 14.3909 10.3052 13.5725 10.9447L11.5265 9.73195C10.922 9.37363 10.1565 9.48756 9.67687 10.0082C8.02057 11.8061 6.76634 13.9983 6.06172 16.4337C5.86385 17.1175 6.15408 17.8513 6.75578 18.208L8.8048 19.4226C8.67599 20.47 8.67599 21.53 8.8048 22.5774L6.75578 23.792C6.15408 24.1487 5.86385 24.8825 6.06172 25.5663C6.76634 28.0017 8.02057 30.1939 9.67687 31.9918C10.1565 32.5124 10.9221 32.6264 11.5265 32.2681L13.5725 31.0553C14.3909 31.6948 15.2848 32.2255 16.2328 32.6346V35.0613C16.2328 35.7794 16.7137 36.4035 17.3943 36.5689C19.7597 37.1437 22.2399 37.1437 24.6057 36.5689C25.2863 36.4035 25.7672 35.7795 25.7672 35.0613V32.6346C26.7152 32.2255 27.6091 31.6948 28.4275 31.0553L30.4735 32.2681C31.0779 32.6264 31.8435 32.5125 32.3231 31.9918C33.9794 30.1939 35.2337 28.0017 35.9383 25.5663C36.1361 24.8825 35.8459 24.1487 35.2442 23.792ZM31.1299 30.2734L28.2201 28.5482C26.5244 30.0367 25.923 30.4112 23.7565 31.1972V34.6475C21.938 35.0326 20.062 35.0326 18.2435 34.6475V31.1972C16.131 30.4308 15.5194 30.075 13.7799 28.5482L10.8701 30.2734C9.63163 28.8482 8.69044 27.1773 8.10985 25.3729L11.0209 23.6477C10.6103 21.3627 10.6101 20.6384 11.0209 18.3523L8.10985 16.6271C8.69044 14.8227 9.63169 13.1517 10.8701 11.7259L13.7799 13.4523C15.5001 11.9405 16.1087 11.5772 18.2435 10.8027V7.35253C20.062 6.96672 21.938 6.96672 23.7565 7.35253V10.8028C25.8914 11.5773 26.5001 11.9407 28.2201 13.4524L31.1299 11.726C32.3683 13.1517 33.3096 14.8227 33.8901 16.6272L30.9791 18.3524C31.3898 20.6379 31.3899 21.3616 30.9791 23.6478L33.8901 25.3729C33.3096 27.1773 32.3684 28.8483 31.1299 30.2734ZM21 14.8065C17.6739 14.8065 14.9679 17.5849 14.9679 21C14.9679 24.4152 17.6739 27.1936 21 27.1936C24.3261 27.1936 27.0321 24.4152 27.0321 21C27.0321 17.5849 24.3261 14.8065 21 14.8065ZM21 25.1291C18.7826 25.1291 16.9786 23.2768 16.9786 21C16.9786 18.7233 18.7826 16.871 21 16.871C23.2174 16.871 25.0214 18.7233 25.0214 21C25.0214 23.2768 23.2174 25.1291 21 25.1291Z" fill="white"/>
</svg>
