<svg width="42" height="42" viewBox="0 0 42 42" fill="none" xmlns="http://www.w3.org/2000/svg">
<path d="M8.81181 9H16.5443C16.9309 9 17.2473 9.32344 17.2473 9.71875V10.1979C17.2473 10.5932 16.9309 10.9167 16.5443 10.9167H8.81181C8.29631 10.9167 7.87454 11.3479 7.87454 11.875V29.125C7.87454 29.6521 8.29631 30.0833 8.81181 30.0833H16.5443C16.9309 30.0833 17.2473 30.4068 17.2473 30.8021V31.2812C17.2473 31.6766 16.9309 32 16.5443 32H8.81181C7.25946 32 6 30.7122 6 29.125V11.875C6 10.2878 7.25946 9 8.81181 9ZM25.1555 10.168L24.7396 10.5932C24.4642 10.8747 24.4642 11.3299 24.7396 11.6115L32.4721 19.4818H16.0757C15.689 19.4818 15.3727 19.8052 15.3727 20.2005V20.7995C15.3727 21.1948 15.689 21.5182 16.0757 21.5182H32.4721L24.7454 29.3885C24.4701 29.6701 24.4701 30.1253 24.7454 30.4068L25.1613 30.832C25.4367 31.1135 25.8819 31.1135 26.1572 30.832L35.7935 21.0091C36.0688 20.7276 36.0688 20.2724 35.7935 19.9909L26.1513 10.168C25.876 9.88646 25.4308 9.88646 25.1555 10.168Z" fill="white"/>
</svg>
