<svg width="297" height="362" viewBox="0 0 297 362" fill="none" xmlns="http://www.w3.org/2000/svg">
<path d="M175.235 87.5182L175.295 87.5841L175.359 87.6463L217.734 129.011C220.943 132.516 224.438 134.516 228.152 134.748C231.888 134.982 235.215 133.388 237.981 131.016C243.398 126.373 247.595 117.989 250.266 109.625L259.097 81.9703C265.034 63.379 248.619 45.3324 229.55 49.4866L201.185 55.6659C192.555 57.5458 183.014 61.233 177.036 66.3739C174.035 68.9547 171.625 72.1696 171.047 75.9925C170.448 79.9484 171.909 83.8617 175.235 87.5182Z" fill="#188B70" stroke="black" stroke-width="6"/>
<path d="M233.324 134.905L233.336 134.993L233.353 135.081L240.472 170.848C240.912 173.921 242.086 176.461 244.194 178.109C246.321 179.772 248.901 180.137 251.324 179.875C256.018 179.368 261.281 176.409 265.608 173.047L279.736 162.066C289.934 154.141 287.728 138.148 275.765 133.28L259.192 126.534C254.068 124.449 247.726 122.923 242.624 123.483C240.057 123.764 237.4 124.621 235.511 126.643C233.531 128.764 232.874 131.643 233.324 134.905Z" fill="#188B70" stroke="black" stroke-width="6"/>
<path d="M192.904 255.348L192.361 258.299L192.904 255.348L183.913 253.693C181.023 253.161 177.414 253.016 174.588 253.933C173.16 254.396 171.547 255.259 170.557 256.885C169.498 258.626 169.522 260.619 170.191 262.5L170.221 262.584L170.256 262.666L177.513 279.787C178.136 281.49 179.186 282.991 180.845 283.811C182.53 284.644 184.279 284.493 185.696 284.036C188.383 283.169 190.928 280.89 192.8 278.693L198.729 271.733C203.741 265.85 200.505 256.748 192.904 255.348Z" fill="#188B70" stroke="black" stroke-width="6"/>
<path d="M199.521 281.726L198.62 284.587L199.521 281.726L190.8 278.98C187.997 278.098 184.434 277.512 181.517 278.075C180.043 278.36 178.336 279.018 177.154 280.511C175.889 282.109 175.669 284.089 176.102 286.038L176.122 286.125L176.146 286.21L181.25 304.092C181.659 305.859 182.517 307.478 184.062 308.495C185.633 309.528 187.387 309.593 188.849 309.313C191.623 308.782 194.428 306.832 196.555 304.881L203.293 298.701C208.988 293.477 206.893 284.046 199.521 281.726Z" fill="#188B70" stroke="black" stroke-width="6"/>
<path d="M198.226 302.459L200.136 304.772L198.226 302.459L191.175 308.278C188.909 310.148 186.476 312.818 185.36 315.571C184.796 316.962 184.419 318.753 185.027 320.557C185.679 322.488 187.22 323.751 189.09 324.449L189.174 324.48L189.259 324.506L207.036 329.963C208.741 330.582 210.566 330.744 212.26 330.001C213.983 329.247 214.992 327.811 215.553 326.432C216.618 323.816 216.51 320.402 216.032 317.556L214.518 308.539C213.238 300.917 204.187 297.539 198.226 302.459Z" fill="#188B70" stroke="black" stroke-width="6"/>
<path d="M210.474 328.619L210.555 328.655L210.639 328.685L224.595 333.796C226.019 334.397 227.63 334.641 229.199 334.051C230.799 333.449 231.763 332.201 232.313 331.034C233.346 328.837 233.391 325.969 233.126 323.64L232.3 316.372C231.549 309.769 223.932 306.456 218.59 310.407L212.709 314.757C210.782 316.182 208.636 318.282 207.567 320.564C207.026 321.718 206.591 323.288 207.055 324.948C207.554 326.738 208.892 327.931 210.474 328.619Z" fill="#188B70" stroke="black" stroke-width="6"/>
<path d="M223.733 339.908L223.76 339.899L223.787 339.889C229.175 338.011 233.658 334.234 233.553 328.996C233.451 323.854 228.932 319.692 222.084 316.941C207.029 309.645 192.239 313.158 182.806 317.772C176.775 320.721 173.265 326.504 171.496 332.298L168.19 343.128L168.152 343.253L168.125 343.38C167.94 344.251 168.015 345.161 168.392 346.009C168.752 346.819 169.313 347.408 169.85 347.824C170.869 348.612 172.162 349.05 173.326 349.327C175.732 349.899 178.94 350.077 182.281 350.008C188.97 349.87 197.159 348.713 202.529 346.847L223.733 339.908Z" fill="#09E3AF" stroke="black" stroke-width="6"/>
<path d="M230.891 190.125L230.857 190.207L230.829 190.292L219.232 224.867C218.086 227.753 217.843 230.541 218.854 233.018C219.873 235.518 221.93 237.117 224.163 238.094C228.488 239.986 234.526 240.035 239.952 239.267L257.668 236.759C270.456 234.949 276.49 219.975 268.528 209.805L257.498 195.716C254.088 191.36 249.343 186.884 244.637 184.834C242.27 183.803 239.538 183.226 236.894 184.042C234.122 184.899 232.121 187.071 230.891 190.125Z" fill="#188B70" stroke="black" stroke-width="6"/>
<path d="M115.117 74.6692L115.207 74.6844L115.298 74.6941L170.735 80.5968C175.194 81.3319 179.01 80.7444 181.941 78.649C184.876 76.5508 186.4 73.3146 187.053 69.858C188.336 63.0763 186.53 54.1923 183.609 46.2401L173.957 19.9603C167.448 2.23904 144.586 -1.69266 132.833 13.0615L115.52 34.7943C110.245 41.4158 105.357 49.9558 103.951 57.4544C103.246 61.2148 103.344 65.1079 105.161 68.3691C107.049 71.7599 110.461 73.8841 115.117 74.6692Z" fill="#188B70" stroke="black" stroke-width="6"/>
<path d="M86.6612 256.81L86.1092 256.854L85.6095 257.093C84.0012 257.861 82.6188 259.214 81.4462 260.705C80.2432 262.234 79.0942 264.124 78.0125 266.239C75.8475 270.473 73.8219 275.867 72.1256 281.709C68.7457 293.35 66.5365 307.253 67.3436 317.975C68.3133 330.858 75.247 340.252 82.9906 346.495C90.6616 352.68 99.3967 355.999 104.637 356.656C109.344 357.246 122.671 358.547 136.235 358.906C143.015 359.086 149.922 359.032 155.87 358.523C161.663 358.027 167.067 357.066 170.458 355.123C171.457 354.551 172.52 353.96 173.626 353.345C178.261 350.767 183.645 347.774 188.173 344.01C193.891 339.258 198.654 332.972 199.313 324.155C199.632 319.888 198.943 313.824 197.75 307.26C196.544 300.623 194.775 293.226 192.805 286.181C190.837 279.137 188.653 272.392 186.607 267.061C185.585 264.4 184.58 262.047 183.637 260.169C182.751 258.404 181.748 256.702 180.643 255.673C179.829 254.915 178.764 254.538 178.002 254.319C177.134 254.07 176.111 253.88 175.002 253.73C172.776 253.429 169.898 253.246 166.582 253.151C159.932 252.959 151.225 253.112 141.809 253.461C122.962 254.158 101.071 255.649 86.6612 256.81Z" fill="#09E3AF" stroke="black" stroke-width="6"/>
<path d="M84.54 290.813C119.555 307.594 120.709 289.642 104.164 277.154" stroke="black" stroke-width="6" stroke-linecap="round"/>
<path d="M172.249 290.609C137.948 307.139 136.818 289.456 153.025 277.154" stroke="black" stroke-width="6" stroke-linecap="round"/>
<path d="M103.376 353.652C103.437 353.571 103.488 353.499 103.53 353.436C111.386 343.534 113.985 334.084 113.449 325.945C112.921 317.925 109.365 311.434 105.285 307.296C104.575 306.412 103.61 305.652 102.346 305.367C101.004 305.064 99.8144 305.407 98.9477 305.837C97.4087 306.603 96.0845 308.074 95.2623 308.988L95.2428 309.01C95.1322 309.133 95.0274 309.25 94.927 309.362C94.862 309.435 94.7988 309.505 94.7372 309.574C91.2546 303.733 85.4472 302.165 81.1474 303.776C79.7907 304.284 79.0208 305.35 78.6018 306.122C78.1647 306.927 77.8825 307.828 77.6822 308.636C77.3399 310.015 77.1172 311.65 76.93 313.024C76.9001 313.244 76.871 313.458 76.8425 313.662C76.817 313.846 76.7919 314.023 76.7669 314.194C74.5831 313.143 72.3333 313.232 70.4407 313.765C68.401 314.34 66.5469 315.512 65.6145 316.102C65.4587 316.2 65.3286 316.283 65.2277 316.343C64.1969 316.961 63.7768 317.975 63.6403 318.315C63.4322 318.834 63.2892 319.405 63.187 319.959C62.9793 321.084 62.876 322.495 62.9025 324.073C62.9558 327.24 63.5376 331.357 65.1103 335.651C68.2937 344.344 75.5555 353.742 90.3741 357.286C94.747 358.332 98.0312 357.569 100.304 356.293C101.406 355.674 102.207 354.971 102.747 354.397C103.018 354.11 103.226 353.854 103.376 353.652ZM95.779 311.609C95.7788 311.61 95.7745 311.602 95.7665 311.586C95.7751 311.6 95.7791 311.609 95.779 311.609ZM76.2543 316.671C76.2272 316.729 76.2268 316.716 76.2594 316.66C76.2576 316.664 76.2559 316.667 76.2543 316.671ZM79.3227 316.04C79.3524 316.063 79.3677 316.078 79.3679 316.08C79.3681 316.081 79.3533 316.07 79.3227 316.04Z" fill="#09E3AF" stroke="black" stroke-width="6"/>
<path d="M151.782 353.93C151.72 353.848 151.668 353.775 151.625 353.712C143.612 343.691 140.96 334.128 141.507 325.888C142.046 317.77 145.675 311.203 149.832 307.021C150.553 306.129 151.527 305.371 152.796 305.087C154.14 304.786 155.334 305.125 156.209 305.557C157.769 306.326 159.115 307.811 159.956 308.738L159.973 308.757C160.085 308.881 160.192 308.999 160.294 309.113C160.384 309.212 160.47 309.307 160.554 309.4C164.094 303.432 170.023 301.852 174.382 303.473C175.744 303.979 176.523 305.044 176.95 305.825C177.395 306.637 177.682 307.548 177.887 308.365C178.236 309.761 178.463 311.415 178.654 312.807C178.684 313.03 178.714 313.246 178.743 313.453C178.773 313.663 178.802 313.866 178.831 314.061C181.068 312.962 183.377 313.047 185.315 313.589C187.385 314.168 189.266 315.348 190.219 315.946C190.379 316.046 190.513 316.13 190.618 316.192C191.652 316.808 192.078 317.822 192.218 318.169C192.43 318.692 192.575 319.269 192.679 319.829C192.891 320.967 192.997 322.395 192.969 323.992C192.915 327.198 192.322 331.364 190.717 335.71C187.47 344.509 180.068 354.006 164.976 357.588C160.533 358.642 157.203 357.873 154.9 356.59C153.782 355.967 152.969 355.259 152.42 354.681C152.145 354.392 151.934 354.133 151.782 353.93ZM161.904 310.735C161.917 310.743 161.916 310.741 161.902 310.734C161.902 310.734 161.903 310.734 161.904 310.735ZM159.551 311.358C159.542 311.372 159.539 311.379 159.539 311.38C159.539 311.38 159.543 311.373 159.551 311.358ZM179.345 316.505C179.372 316.562 179.373 316.55 179.341 316.495C179.342 316.499 179.344 316.502 179.345 316.505ZM176.323 315.88C176.293 315.902 176.278 315.917 176.278 315.918C176.278 315.92 176.292 315.909 176.323 315.88Z" fill="#09E3AF" stroke="black" stroke-width="6"/>
<path d="M126.989 39.4518L126.938 39.4501H126.888C85.3142 39.4501 54.258 55.2347 33.6297 78.7299C13.055 102.164 3 133.095 3 163.25C3 193.51 13.8053 220.299 34.6222 239.506C55.4239 258.698 85.9475 270.069 124.957 270.069C168.137 270.069 202.088 258.742 225.303 239.616C248.565 220.452 260.818 193.636 260.818 163.25C260.818 102.472 208.82 42.2037 126.989 39.4518Z" fill="#09E3AF" stroke="black" stroke-width="6"/>
<ellipse cx="34.197" cy="181.291" rx="16.197" ry="12.377" fill="#FE6867"/>
<circle cx="48.1735" cy="162.552" r="18.9475" fill="black"/>
<ellipse cx="191.197" cy="178.291" rx="16.197" ry="12.377" fill="#FE6867"/>
<circle cx="175.611" cy="161.024" r="18.9475" fill="black"/>
<path d="M133.131 181.194C114.938 173.866 104.486 174.251 86.6795 180.037" stroke="black" stroke-width="6" stroke-linecap="round"/>
</svg>
