<svg width="208" height="50" viewBox="0 0 208 50" fill="none" xmlns="http://www.w3.org/2000/svg">
<path d="M89.3965 34.1439C88.181 34.1439 87.1175 34.032 86.2058 33.8081C85.2942 33.5682 84.5345 33.1364 83.9268 32.5126C83.319 31.8729 82.8552 30.9613 82.5354 29.7778C82.2315 28.5943 82.0796 27.0509 82.0796 25.1477C82.0796 23.2445 82.2315 21.7011 82.5354 20.5176C82.8552 19.3181 83.319 18.3985 83.9268 17.7588C84.5505 17.119 85.3102 16.6792 86.2058 16.4393C87.1175 16.1994 88.181 16.0795 89.3965 16.0795C90.612 16.0795 91.6756 16.1994 92.5872 16.4393C93.4988 16.6792 94.2585 17.119 94.8662 17.7588C95.474 18.3985 95.9298 19.3181 96.2337 20.5176C96.5375 21.7011 96.6895 23.2445 96.6895 25.1477C96.6895 27.0509 96.5375 28.5943 96.2337 29.7778C95.9298 30.9613 95.474 31.8729 94.8662 32.5126C94.2585 33.1364 93.4908 33.5682 92.5632 33.8081C91.6516 34.032 90.596 34.1439 89.3965 34.1439ZM89.3965 30.9533C90.1002 30.9533 90.692 30.8813 91.1718 30.7374C91.6676 30.5774 92.0514 30.2895 92.3233 29.8737C92.6112 29.4579 92.8191 28.8741 92.947 28.1224C93.075 27.3548 93.1389 26.3632 93.1389 25.1477C93.1389 23.8842 93.075 22.8686 92.947 22.101C92.8191 21.3173 92.6112 20.7255 92.3233 20.3257C92.0354 19.9099 91.6516 19.63 91.1718 19.486C90.692 19.3421 90.1002 19.2701 89.3965 19.2701C88.6928 19.2701 88.101 19.3421 87.6212 19.486C87.1574 19.63 86.7736 19.9099 86.4697 20.3257C86.1818 20.7255 85.9659 21.3173 85.822 22.101C85.694 22.8686 85.6301 23.8842 85.6301 25.1477C85.6301 26.3632 85.686 27.3548 85.798 28.1224C85.9259 28.8741 86.1339 29.4579 86.4217 29.8737C86.7096 30.2895 87.0935 30.5774 87.5733 30.7374C88.0531 30.8813 88.6608 30.9533 89.3965 30.9533ZM99.1417 39.6856V21.1174H102.116L102.692 22.3409C103.14 21.989 103.66 21.6691 104.252 21.3813C104.859 21.0774 105.531 20.9254 106.267 20.9254C107.866 20.9254 109.026 21.5172 109.745 22.7007C110.465 23.8842 110.825 25.5075 110.825 27.5707C110.825 28.9461 110.689 30.1296 110.417 31.1212C110.145 32.1128 109.673 32.8725 109.002 33.4002C108.346 33.912 107.434 34.1679 106.267 34.1679C105.659 34.1679 105.035 34.096 104.395 33.952C103.772 33.8081 103.204 33.6002 102.692 33.3283V39.6856H99.1417ZM105.115 31.2411C105.483 31.2411 105.827 31.1452 106.147 30.9533C106.483 30.7454 106.755 30.3775 106.962 29.8497C107.17 29.3219 107.274 28.5623 107.274 27.5707C107.274 26.1313 107.066 25.1397 106.651 24.5959C106.251 24.0521 105.739 23.7803 105.115 23.7803C104.619 23.7803 104.164 23.8602 103.748 24.0202C103.332 24.1801 102.98 24.34 102.692 24.5V30.6174C103.012 30.8093 103.388 30.9613 103.82 31.0732C104.252 31.1852 104.683 31.2411 105.115 31.2411ZM118.597 34.12C117.173 34.12 116.038 33.936 115.19 33.5682C114.342 33.1843 113.727 32.5206 113.343 31.577C112.975 30.6174 112.791 29.282 112.791 27.5707C112.791 25.8274 112.967 24.476 113.319 23.5164C113.671 22.5568 114.262 21.885 115.094 21.5012C115.926 21.1174 117.053 20.9254 118.477 20.9254C119.74 20.9254 120.756 21.0534 121.523 21.3093C122.307 21.5652 122.867 22.013 123.203 22.6527C123.555 23.2925 123.731 24.1961 123.731 25.3636C123.731 26.6751 123.355 27.5787 122.603 28.0745C121.851 28.5703 120.836 28.8182 119.556 28.8182H116.318C116.334 29.4739 116.43 29.9937 116.605 30.3775C116.781 30.7613 117.093 31.0412 117.541 31.2172C118.005 31.3931 118.669 31.481 119.532 31.481H123.299V33.5682C122.675 33.6961 121.987 33.8241 121.236 33.952C120.5 34.064 119.62 34.12 118.597 34.12ZM116.27 26.707H119.196C119.676 26.707 120.028 26.6111 120.252 26.4192C120.476 26.2112 120.588 25.8674 120.588 25.3876C120.588 24.6839 120.42 24.1961 120.084 23.9242C119.764 23.6363 119.228 23.4924 118.477 23.4924C117.661 23.4924 117.085 23.7163 116.749 24.1641C116.43 24.5959 116.27 25.4436 116.27 26.707ZM126.06 34V21.1174H128.987L129.611 22.4368C130.09 22.053 130.698 21.7011 131.434 21.3813C132.17 21.0614 132.913 20.9015 133.665 20.9015C134.721 20.9015 135.536 21.1094 136.112 21.5252C136.688 21.941 137.088 22.5008 137.311 23.2045C137.551 23.8922 137.671 24.6599 137.671 25.5075V34H134.121V25.9633C134.121 25.3396 133.953 24.8758 133.617 24.5719C133.281 24.2521 132.833 24.0921 132.274 24.0921C131.762 24.0921 131.282 24.1801 130.834 24.356C130.402 24.5319 129.995 24.7638 129.611 25.0517V34H126.06ZM146.469 34.1439C145.446 34.1439 144.534 34.024 143.734 33.7841C142.935 33.5442 142.263 33.1044 141.719 32.4646C141.175 31.8249 140.759 30.9133 140.472 29.7298C140.184 28.5303 140.04 26.9789 140.04 25.0757C140.04 23.2365 140.184 21.7331 140.472 20.5656C140.775 19.3981 141.207 18.4865 141.767 17.8307C142.327 17.175 143.007 16.7192 143.806 16.4633C144.606 16.2074 145.509 16.0795 146.517 16.0795C147.701 16.0795 148.772 16.1754 149.732 16.3673C150.707 16.5433 151.483 16.7272 152.059 16.9191V19.678C151.627 19.582 150.971 19.494 150.092 19.4141C149.228 19.3181 148.284 19.2701 147.261 19.2701C146.589 19.2701 146.013 19.3501 145.533 19.51C145.07 19.654 144.694 19.9339 144.406 20.3497C144.134 20.7495 143.926 21.3333 143.782 22.101C143.654 22.8686 143.59 23.8682 143.59 25.0997C143.59 26.699 143.694 27.9225 143.902 28.7702C144.11 29.6018 144.478 30.1776 145.006 30.4975C145.533 30.8013 146.285 30.9533 147.261 30.9533C148.46 30.9533 149.444 30.9293 150.212 30.8813C150.979 30.8333 151.595 30.7773 152.059 30.7134V33.4482C151.403 33.6721 150.611 33.8481 149.684 33.976C148.772 34.088 147.701 34.1439 146.469 34.1439ZM159.668 34.12C158.244 34.12 157.101 33.92 156.237 33.5202C155.373 33.1044 154.742 32.4167 154.342 31.4571C153.958 30.4975 153.766 29.186 153.766 27.5227C153.766 25.7634 153.966 24.412 154.366 23.4684C154.766 22.5088 155.397 21.8451 156.261 21.4772C157.125 21.1094 158.26 20.9254 159.668 20.9254C161.091 20.9254 162.235 21.1174 163.098 21.5012C163.978 21.885 164.61 22.5568 164.993 23.5164C165.393 24.476 165.593 25.8114 165.593 27.5227C165.593 29.234 165.401 30.5694 165.017 31.529C164.634 32.4886 164.01 33.1603 163.146 33.5442C162.283 33.928 161.123 34.12 159.668 34.12ZM159.668 31.2891C160.227 31.2891 160.683 31.2092 161.035 31.0492C161.387 30.8893 161.643 30.5454 161.803 30.0177C161.963 29.4739 162.043 28.6422 162.043 27.5227C162.043 26.3872 161.963 25.5555 161.803 25.0277C161.643 24.5 161.387 24.1561 161.035 23.9962C160.683 23.8362 160.227 23.7563 159.668 23.7563C159.108 23.7563 158.652 23.8362 158.3 23.9962C157.964 24.1561 157.717 24.5 157.557 25.0277C157.397 25.5555 157.317 26.3872 157.317 27.5227C157.317 28.6422 157.397 29.4739 157.557 30.0177C157.717 30.5454 157.964 30.8893 158.3 31.0492C158.652 31.2092 159.108 31.2891 159.668 31.2891ZM171.979 34.048C170.62 34.048 169.604 33.7121 168.933 33.0404C168.277 32.3687 167.949 31.3051 167.949 29.8497V15.6956H171.499V29.3219C171.499 30.0416 171.611 30.5454 171.835 30.8333C172.059 31.1052 172.395 31.2731 172.843 31.3371L173.826 31.481V34.048H171.979ZM179.5 34.048C178.14 34.048 177.125 33.7121 176.453 33.0404C175.797 32.3687 175.469 31.3051 175.469 29.8497V15.6956H179.02V29.3219C179.02 30.0416 179.132 30.5454 179.356 30.8333C179.58 31.1052 179.915 31.2731 180.363 31.3371L181.347 31.481V34.048H179.5ZM185.724 34.1439C184.749 34.1439 183.957 33.8561 183.349 33.2803C182.742 32.7045 182.438 31.9049 182.438 30.8813V29.7298C182.438 28.7542 182.782 27.9545 183.469 27.3308C184.157 26.691 185.229 26.3712 186.684 26.3712H189.971V25.4835C189.971 25.0837 189.899 24.7559 189.755 24.5C189.627 24.2281 189.363 24.0362 188.963 23.9242C188.563 23.7963 187.963 23.7323 187.164 23.7323H183.301V21.6691C183.941 21.4772 184.669 21.3093 185.485 21.1653C186.3 21.0214 187.292 20.9494 188.459 20.9494C189.531 20.9494 190.442 21.0774 191.194 21.3333C191.946 21.5892 192.522 22.029 192.921 22.6527C193.321 23.2765 193.521 24.1401 193.521 25.2436V34H190.714L190.139 32.6326C189.995 32.7925 189.707 32.9924 189.275 33.2323C188.843 33.4562 188.315 33.6641 187.692 33.8561C187.084 34.048 186.428 34.1439 185.724 34.1439ZM187.524 31.673C187.796 31.673 188.107 31.633 188.459 31.553C188.827 31.4571 189.155 31.3611 189.443 31.2651C189.747 31.1532 189.923 31.0812 189.971 31.0492V28.0505L187.812 28.1944C186.596 28.2904 185.988 28.8182 185.988 29.7778V30.3055C185.988 30.8173 186.132 31.1772 186.42 31.3851C186.724 31.577 187.092 31.673 187.524 31.673ZM203.472 34.1439C202.625 34.1439 201.905 34.008 201.313 33.7361C200.737 33.4642 200.21 33.1444 199.73 32.7765L199.154 34H196.179V15.6956H199.73V22.005C200.242 21.7331 200.817 21.4852 201.457 21.2613C202.113 21.0374 202.729 20.9254 203.304 20.9254C204.952 20.9254 206.119 21.4532 206.807 22.5088C207.511 23.5484 207.862 25.2756 207.862 27.6906C207.862 29.8657 207.503 31.489 206.783 32.5606C206.079 33.6162 204.976 34.1439 203.472 34.1439ZM202.153 31.2411C202.569 31.2411 202.937 31.1372 203.256 30.9293C203.592 30.7054 203.848 30.3215 204.024 29.7778C204.216 29.234 204.312 28.4823 204.312 27.5227C204.312 26.4192 204.208 25.6035 204 25.0757C203.808 24.5479 203.544 24.2041 203.208 24.0441C202.873 23.8682 202.521 23.7803 202.153 23.7803C201.673 23.7803 201.225 23.8602 200.809 24.0202C200.394 24.1641 200.034 24.324 199.73 24.5V30.6174C200.018 30.7773 200.362 30.9213 200.761 31.0492C201.161 31.1772 201.625 31.2411 202.153 31.2411Z" fill="white"/>
<circle cx="43" cy="25" r="23.5" stroke="#5D6EFC" stroke-width="3"/>
<circle cx="25" cy="25" r="25" fill="url(#paint0_linear)"/>
<defs>
<linearGradient id="paint0_linear" x1="0" y1="0" x2="50" y2="50" gradientUnits="userSpaceOnUse">
<stop stop-color="#E54CC9"/>
<stop offset="1" stop-color="#A166E1"/>
</linearGradient>
</defs>
</svg>
