<svg width="236" height="50" viewBox="0 0 236 50" fill="none" xmlns="http://www.w3.org/2000/svg">
<path d="M82.6553 34V16.2474H85.5101L92.947 27.9545V16.2474H96.4975V34H93.6427L86.2298 22.2929V34H82.6553ZM104.777 34.12C103.353 34.12 102.21 33.92 101.346 33.5202C100.482 33.1044 99.8506 32.4167 99.4507 31.4571C99.0669 30.4975 98.875 29.186 98.875 27.5227C98.875 25.7634 99.0749 24.412 99.4747 23.4684C99.8746 22.5088 100.506 21.8451 101.37 21.4772C102.234 21.1094 103.369 20.9254 104.777 20.9254C106.2 20.9254 107.343 21.1174 108.207 21.5012C109.087 21.885 109.718 22.5568 110.102 23.5164C110.502 24.476 110.702 25.8114 110.702 27.5227C110.702 29.234 110.51 30.5694 110.126 31.529C109.742 32.4886 109.119 33.1603 108.255 33.5442C107.391 33.928 106.232 34.12 104.777 34.12ZM104.777 31.2891C105.336 31.2891 105.792 31.2092 106.144 31.0492C106.496 30.8893 106.752 30.5454 106.912 30.0177C107.072 29.4739 107.152 28.6422 107.152 27.5227C107.152 26.3872 107.072 25.5555 106.912 25.0277C106.752 24.5 106.496 24.1561 106.144 23.9962C105.792 23.8362 105.336 23.7563 104.777 23.7563C104.217 23.7563 103.761 23.8362 103.409 23.9962C103.073 24.1561 102.825 24.5 102.665 25.0277C102.505 25.5555 102.426 26.3872 102.426 27.5227C102.426 28.6422 102.505 29.4739 102.665 30.0177C102.825 30.5454 103.073 30.8893 103.409 31.0492C103.761 31.2092 104.217 31.2891 104.777 31.2891ZM113.058 34V21.1174H115.985L116.608 22.4368C117.088 22.053 117.696 21.7011 118.432 21.3813C119.167 21.0614 119.911 20.9015 120.663 20.9015C121.718 20.9015 122.534 21.1094 123.11 21.5252C123.685 21.941 124.085 22.5008 124.309 23.2045C124.549 23.8922 124.669 24.6599 124.669 25.5075V34H121.118V25.9633C121.118 25.3396 120.95 24.8758 120.615 24.5719C120.279 24.2521 119.831 24.0921 119.271 24.0921C118.759 24.0921 118.28 24.1801 117.832 24.356C117.4 24.5319 116.992 24.7638 116.608 25.0517V34H113.058ZM132.339 34.1439C131.284 34.1439 130.348 33.952 129.532 33.5682C128.733 33.1843 128.101 32.5206 127.637 31.577C127.173 30.6334 126.941 29.314 126.941 27.6187C126.941 25.8594 127.157 24.5 127.589 23.5404C128.021 22.5648 128.645 21.885 129.46 21.5012C130.276 21.1174 131.268 20.9254 132.435 20.9254C133.219 20.9254 133.962 20.9734 134.666 21.0694C135.386 21.1494 136.138 21.3013 136.921 21.5252V23.5643H133.539C132.803 23.5643 132.211 23.6763 131.763 23.9002C131.316 24.1081 130.988 24.508 130.78 25.0997C130.588 25.6755 130.492 26.5071 130.492 27.5947C130.492 28.6822 130.588 29.5059 130.78 30.0656C130.988 30.6094 131.316 30.9773 131.763 31.1692C132.227 31.3611 132.835 31.4571 133.587 31.4571H137.113V33.4722C136.521 33.6641 135.786 33.8241 134.906 33.952C134.026 34.08 133.171 34.1439 132.339 34.1439ZM144.508 34.12C143.084 34.12 141.949 33.936 141.101 33.5682C140.253 33.1843 139.638 32.5206 139.254 31.577C138.886 30.6174 138.702 29.282 138.702 27.5707C138.702 25.8274 138.878 24.476 139.23 23.5164C139.582 22.5568 140.174 21.885 141.005 21.5012C141.837 21.1174 142.964 20.9254 144.388 20.9254C145.651 20.9254 146.667 21.0534 147.434 21.3093C148.218 21.5652 148.778 22.013 149.114 22.6527C149.466 23.2925 149.642 24.1961 149.642 25.3636C149.642 26.6751 149.266 27.5787 148.514 28.0745C147.762 28.5703 146.747 28.8182 145.467 28.8182H142.229C142.245 29.4739 142.341 29.9937 142.517 30.3775C142.692 30.7613 143.004 31.0412 143.452 31.2172C143.916 31.3931 144.58 31.481 145.443 31.481H149.21V33.5682C148.586 33.6961 147.898 33.8241 147.147 33.952C146.411 34.064 145.531 34.12 144.508 34.12ZM142.181 26.707H145.107C145.587 26.707 145.939 26.6111 146.163 26.4192C146.387 26.2112 146.499 25.8674 146.499 25.3876C146.499 24.6839 146.331 24.1961 145.995 23.9242C145.675 23.6363 145.139 23.4924 144.388 23.4924C143.572 23.4924 142.996 23.7163 142.66 24.1641C142.341 24.5959 142.181 25.4436 142.181 26.707ZM152.139 34V16.2474H159.12C160.88 16.2474 162.159 16.6552 162.959 17.4709C163.774 18.2706 164.182 19.4141 164.182 20.9015C164.182 21.973 163.958 22.8367 163.51 23.4924C163.079 24.1481 162.479 24.5799 161.711 24.7878C162.223 24.8998 162.711 25.1317 163.175 25.4835C163.638 25.8194 164.014 26.2912 164.302 26.899C164.606 27.4907 164.758 28.2264 164.758 29.106C164.758 30.9133 164.294 32.1848 163.366 32.9204C162.455 33.6401 161.143 34 159.432 34H152.139ZM155.69 23.5643H159.144C159.656 23.5643 160.056 23.3804 160.344 23.0126C160.648 22.6287 160.8 22.1329 160.8 21.5252C160.816 20.7415 160.656 20.1978 160.32 19.8939C159.984 19.59 159.576 19.4381 159.096 19.4381H155.69V23.5643ZM155.69 30.8093H159.336C159.96 30.8093 160.456 30.6334 160.824 30.2816C161.191 29.9297 161.375 29.3299 161.375 28.4823C161.375 27.7946 161.183 27.2588 160.8 26.875C160.416 26.4911 159.928 26.2992 159.336 26.2992H155.69V30.8093ZM172.53 34.12C171.106 34.12 169.963 33.92 169.099 33.5202C168.235 33.1044 167.604 32.4167 167.204 31.4571C166.82 30.4975 166.628 29.186 166.628 27.5227C166.628 25.7634 166.828 24.412 167.228 23.4684C167.628 22.5088 168.259 21.8451 169.123 21.4772C169.987 21.1094 171.122 20.9254 172.53 20.9254C173.953 20.9254 175.096 21.1174 175.96 21.5012C176.84 21.885 177.471 22.5568 177.855 23.5164C178.255 24.476 178.455 25.8114 178.455 27.5227C178.455 29.234 178.263 30.5694 177.879 31.529C177.495 32.4886 176.872 33.1603 176.008 33.5442C175.144 33.928 173.985 34.12 172.53 34.12ZM172.53 31.2891C173.089 31.2891 173.545 31.2092 173.897 31.0492C174.249 30.8893 174.505 30.5454 174.665 30.0177C174.825 29.4739 174.905 28.6422 174.905 27.5227C174.905 26.3872 174.825 25.5555 174.665 25.0277C174.505 24.5 174.249 24.1561 173.897 23.9962C173.545 23.8362 173.089 23.7563 172.53 23.7563C171.97 23.7563 171.514 23.8362 171.162 23.9962C170.826 24.1561 170.578 24.5 170.418 25.0277C170.258 25.5555 170.179 26.3872 170.179 27.5227C170.179 28.6422 170.258 29.4739 170.418 30.0177C170.578 30.5454 170.826 30.8893 171.162 31.0492C171.514 31.2092 171.97 31.2891 172.53 31.2891ZM184.373 39.6856L185.764 34C184.676 34 183.797 33.7041 183.125 33.1124C182.453 32.5206 181.974 31.665 181.686 30.5454L179.263 21.1174H182.957L184.996 29.8257C185.092 30.2256 185.236 30.5135 185.428 30.6894C185.62 30.8653 185.804 30.9773 185.98 31.0252C186.156 31.0732 186.292 31.0972 186.388 31.0972L188.715 21.1174H192.313L188.475 37.3106L187.323 39.6856H184.373ZM200.353 34V16.2474H203.904V34H200.353ZM206.816 34V21.1174H209.742L210.366 22.4368C210.846 22.053 211.454 21.7011 212.189 21.3813C212.925 21.0614 213.669 20.9015 214.42 20.9015C215.476 20.9015 216.292 21.1094 216.867 21.5252C217.443 21.941 217.843 22.5008 218.067 23.2045C218.307 23.8922 218.427 24.6599 218.427 25.5075V34H214.876V25.9633C214.876 25.3396 214.708 24.8758 214.372 24.5719C214.037 24.2521 213.589 24.0921 213.029 24.0921C212.517 24.0921 212.037 24.1801 211.59 24.356C211.158 24.5319 210.75 24.7638 210.366 25.0517V34H206.816ZM226.097 34.1439C225.041 34.1439 224.106 33.952 223.29 33.5682C222.49 33.1843 221.859 32.5206 221.395 31.577C220.931 30.6334 220.699 29.314 220.699 27.6187C220.699 25.8594 220.915 24.5 221.347 23.5404C221.779 22.5648 222.402 21.885 223.218 21.5012C224.034 21.1174 225.025 20.9254 226.193 20.9254C226.977 20.9254 227.72 20.9734 228.424 21.0694C229.144 21.1494 229.895 21.3013 230.679 21.5252V23.5643H227.296C226.561 23.5643 225.969 23.6763 225.521 23.9002C225.073 24.1081 224.746 24.508 224.538 25.0997C224.346 25.6755 224.25 26.5071 224.25 27.5947C224.25 28.6822 224.346 29.5059 224.538 30.0656C224.746 30.6094 225.073 30.9773 225.521 31.1692C225.985 31.3611 226.593 31.4571 227.344 31.4571H230.871V33.4722C230.279 33.6641 229.544 33.8241 228.664 33.952C227.784 34.08 226.929 34.1439 226.097 34.1439ZM233.252 34.024C232.932 34.024 232.772 33.8641 232.772 33.5442V31.0972C232.772 30.7613 232.932 30.5934 233.252 30.5934H235.315C235.667 30.5934 235.843 30.7613 235.843 31.0972V33.5442C235.843 33.7361 235.787 33.8641 235.675 33.928C235.579 33.992 235.459 34.024 235.315 34.024H233.252Z" fill="white"/>
<circle cx="43" cy="25" r="23.5" stroke="#5D6EFC" stroke-width="3"/>
<circle cx="25" cy="25" r="25" fill="url(#paint0_linear)"/>
<defs>
<linearGradient id="paint0_linear" x1="0" y1="0" x2="50" y2="50" gradientUnits="userSpaceOnUse">
<stop stop-color="#E54CC9"/>
<stop offset="1" stop-color="#A166E1"/>
</linearGradient>
</defs>
</svg>
