<svg width="271" height="50" viewBox="0 0 271 50" fill="none" xmlns="http://www.w3.org/2000/svg">
<path d="M87.8851 34.1439C86.9735 34.1439 85.9979 34.096 84.9584 34C83.9348 33.888 83.0551 33.7361 82.3195 33.5442V30.7374C83.0232 30.8013 83.8708 30.8573 84.8624 30.9053C85.87 30.9373 86.8216 30.9533 87.7172 30.9533C88.6288 30.9533 89.3485 30.8333 89.8763 30.5934C90.4041 30.3375 90.668 29.8577 90.668 29.154V28.5063C90.668 27.9785 90.508 27.5787 90.1882 27.3068C89.8683 27.0189 89.4285 26.875 88.8687 26.875H87.3574C85.6621 26.875 84.3586 26.5071 83.447 25.7714C82.5514 25.0197 82.1035 23.7483 82.1035 21.957V21.0934C82.1035 19.3661 82.5913 18.1026 83.5669 17.303C84.5585 16.5033 85.9819 16.1035 87.8372 16.1035C88.8127 16.1035 89.7803 16.1674 90.7399 16.2954C91.7155 16.4233 92.5392 16.5593 93.2109 16.7032V19.51C92.4752 19.4621 91.6516 19.4141 90.7399 19.3661C89.8443 19.3181 89.0127 19.2941 88.245 19.2941C87.4133 19.2941 86.7416 19.4221 86.2298 19.678C85.734 19.9339 85.4861 20.4616 85.4861 21.2613V21.7411C85.4861 22.3648 85.6621 22.8127 86.0139 23.0845C86.3658 23.3564 86.8855 23.4924 87.5733 23.4924H89.3245C90.9079 23.4924 92.0914 23.9242 92.8751 24.7878C93.6587 25.6515 94.0506 26.739 94.0506 28.0505V29.0581C94.0506 30.4495 93.7867 31.513 93.2589 32.2487C92.7471 32.9844 92.0274 33.4882 91.0998 33.7601C90.1882 34.016 89.1166 34.1439 87.8851 34.1439ZM102.012 34.12C100.589 34.12 99.4451 33.92 98.5815 33.5202C97.7178 33.1044 97.0861 32.4167 96.6863 31.4571C96.3024 30.4975 96.1105 29.186 96.1105 27.5227C96.1105 25.7634 96.3104 24.412 96.7103 23.4684C97.1101 22.5088 97.7418 21.8451 98.6055 21.4772C99.4691 21.1094 100.605 20.9254 102.012 20.9254C103.435 20.9254 104.579 21.1174 105.443 21.5012C106.322 21.885 106.954 22.5568 107.338 23.5164C107.738 24.476 107.938 25.8114 107.938 27.5227C107.938 29.234 107.746 30.5694 107.362 31.529C106.978 32.4886 106.354 33.1603 105.491 33.5442C104.627 33.928 103.467 34.12 102.012 34.12ZM102.012 31.2891C102.572 31.2891 103.028 31.2092 103.379 31.0492C103.731 30.8893 103.987 30.5454 104.147 30.0177C104.307 29.4739 104.387 28.6422 104.387 27.5227C104.387 26.3872 104.307 25.5555 104.147 25.0277C103.987 24.5 103.731 24.1561 103.379 23.9962C103.028 23.8362 102.572 23.7563 102.012 23.7563C101.452 23.7563 100.996 23.8362 100.645 23.9962C100.309 24.1561 100.061 24.5 99.9009 25.0277C99.741 25.5555 99.661 26.3872 99.661 27.5227C99.661 28.6422 99.741 29.4739 99.9009 30.0177C100.061 30.5454 100.309 30.8893 100.645 31.0492C100.996 31.2092 101.452 31.2891 102.012 31.2891ZM110.293 34V21.1174H113.22L113.844 22.4368C114.404 22.021 115.019 21.6611 115.691 21.3573C116.363 21.0534 117.178 20.9015 118.138 20.9015C118.954 20.9015 119.625 21.0774 120.153 21.4292C120.681 21.7651 121.089 22.1969 121.377 22.7247C121.745 22.4528 122.168 22.1809 122.648 21.909C123.144 21.6212 123.672 21.3813 124.231 21.1893C124.791 20.9974 125.343 20.9015 125.887 20.9015C126.926 20.9015 127.742 21.1014 128.334 21.5012C128.926 21.885 129.341 22.4368 129.581 23.1565C129.837 23.8602 129.965 24.6919 129.965 25.6515V34H126.415V25.9633C126.415 25.3396 126.247 24.8758 125.911 24.5719C125.575 24.2521 125.127 24.0921 124.567 24.0921C124.088 24.0921 123.6 24.1961 123.104 24.404C122.624 24.5959 122.192 24.8278 121.808 25.0997C121.872 25.4196 121.904 25.7314 121.904 26.0353V34H118.354V25.9633C118.354 25.3396 118.186 24.8758 117.85 24.5719C117.514 24.2521 117.066 24.0921 116.507 24.0921C115.995 24.0921 115.515 24.1801 115.067 24.356C114.635 24.5319 114.228 24.7638 113.844 25.0517V34H110.293ZM138.042 34.12C136.618 34.12 135.483 33.936 134.635 33.5682C133.787 33.1843 133.172 32.5206 132.788 31.577C132.42 30.6174 132.236 29.282 132.236 27.5707C132.236 25.8274 132.412 24.476 132.764 23.5164C133.116 22.5568 133.707 21.885 134.539 21.5012C135.371 21.1174 136.498 20.9254 137.922 20.9254C139.185 20.9254 140.201 21.0534 140.968 21.3093C141.752 21.5652 142.312 22.013 142.648 22.6527C143 23.2925 143.176 24.1961 143.176 25.3636C143.176 26.6751 142.8 27.5787 142.048 28.0745C141.296 28.5703 140.281 28.8182 139.001 28.8182H135.763C135.779 29.4739 135.875 29.9937 136.05 30.3775C136.226 30.7613 136.538 31.0412 136.986 31.2172C137.45 31.3931 138.114 31.481 138.977 31.481H142.744V33.5682C142.12 33.6961 141.432 33.8241 140.681 33.952C139.945 34.064 139.065 34.12 138.042 34.12ZM135.715 26.707H138.641C139.121 26.707 139.473 26.6111 139.697 26.4192C139.921 26.2112 140.033 25.8674 140.033 25.3876C140.033 24.6839 139.865 24.1961 139.529 23.9242C139.209 23.6363 138.673 23.4924 137.922 23.4924C137.106 23.4924 136.53 23.7163 136.194 24.1641C135.875 24.5959 135.715 25.4436 135.715 26.707ZM145.193 34L147.256 16.2474H150.663L154.741 29.8497L158.796 16.2474H162.178L164.265 34H160.835L159.467 22.3648L156.373 34H153.038L149.943 22.5088L148.624 34H145.193ZM170.096 34.1439C168.929 34.1439 168.017 33.8081 167.361 33.1364C166.721 32.4486 166.402 31.481 166.402 30.2336V21.1174H169.952V29.178C169.952 29.8977 170.12 30.3855 170.456 30.6414C170.792 30.8813 171.248 31.0013 171.823 31.0013C172.271 31.0013 172.727 30.9213 173.191 30.7613C173.671 30.5854 174.094 30.3535 174.462 30.0656V21.1174H178.037V34H175.086L174.462 32.6805C173.87 33.0644 173.199 33.4082 172.447 33.7121C171.711 34 170.928 34.1439 170.096 34.1439ZM185.395 34.1439C184.851 34.1439 184.26 34.1199 183.62 34.072C182.996 34.04 182.396 33.984 181.821 33.904C181.245 33.8081 180.773 33.6961 180.405 33.5682V31.481H186.115C186.611 31.481 186.978 31.4171 187.218 31.2891C187.458 31.1452 187.578 30.8573 187.578 30.4255V30.0177C187.578 29.6978 187.474 29.4499 187.266 29.274C187.058 29.098 186.675 29.0101 186.115 29.0101H184.1C183.364 29.0101 182.7 28.9061 182.108 28.6982C181.517 28.4743 181.045 28.1065 180.693 27.5947C180.357 27.0829 180.189 26.3872 180.189 25.5075V24.7638C180.189 23.9482 180.349 23.2605 180.669 22.7007C180.989 22.1409 181.525 21.7171 182.276 21.4292C183.028 21.1414 184.06 20.9974 185.371 20.9974C185.899 20.9974 186.459 21.0294 187.05 21.0934C187.658 21.1414 188.226 21.2133 188.754 21.3093C189.297 21.4052 189.729 21.5012 190.049 21.5972V23.6843H184.651C184.188 23.6843 183.836 23.7643 183.596 23.9242C183.356 24.0681 183.236 24.348 183.236 24.7638V25.1477C183.236 25.5635 183.364 25.8354 183.62 25.9633C183.876 26.0913 184.268 26.1553 184.795 26.1553H186.859C188.17 26.1553 189.122 26.4591 189.713 27.0669C190.321 27.6586 190.625 28.4823 190.625 29.5379V30.6894C190.625 32.0008 190.169 32.9045 189.258 33.4002C188.362 33.896 187.074 34.1439 185.395 34.1439ZM193.261 19.2222C192.925 19.2222 192.757 19.0622 192.757 18.7424V16.3913C192.757 16.0555 192.925 15.8875 193.261 15.8875H195.996C196.3 15.8875 196.452 16.0555 196.452 16.3913V18.7424C196.452 19.0622 196.3 19.2222 195.996 19.2222H193.261ZM192.829 34V21.1174H196.38V34H192.829ZM204.122 34.1439C203.066 34.1439 202.131 33.952 201.315 33.5682C200.515 33.1843 199.884 32.5206 199.42 31.577C198.956 30.6334 198.724 29.314 198.724 27.6187C198.724 25.8594 198.94 24.5 199.372 23.5404C199.804 22.5648 200.427 21.885 201.243 21.5012C202.059 21.1174 203.05 20.9254 204.218 20.9254C205.001 20.9254 205.745 20.9734 206.449 21.0694C207.168 21.1494 207.92 21.3013 208.704 21.5252V23.5643H205.321C204.586 23.5643 203.994 23.6763 203.546 23.9002C203.098 24.1081 202.77 24.508 202.562 25.0997C202.37 25.6755 202.275 26.5071 202.275 27.5947C202.275 28.6822 202.37 29.5059 202.562 30.0656C202.77 30.6094 203.098 30.9773 203.546 31.1692C204.01 31.3611 204.618 31.4571 205.369 31.4571H208.896V33.4722C208.304 33.6641 207.568 33.8241 206.689 33.952C205.809 34.08 204.953 34.1439 204.122 34.1439ZM209.909 34L215.475 16.2474H219.961L225.526 34H221.832L220.704 30.2816H214.659L213.555 34H209.909ZM215.499 27.0909H219.865L217.682 19.2941L215.499 27.0909ZM227.291 39.6856V21.1174H230.266L230.842 22.3409C231.29 21.989 231.81 21.6691 232.401 21.3813C233.009 21.0774 233.681 20.9254 234.416 20.9254C236.016 20.9254 237.175 21.5172 237.895 22.7007C238.615 23.8842 238.975 25.5075 238.975 27.5707C238.975 28.9461 238.839 30.1296 238.567 31.1212C238.295 32.1128 237.823 32.8725 237.151 33.4002C236.496 33.912 235.584 34.1679 234.416 34.1679C233.809 34.1679 233.185 34.096 232.545 33.952C231.921 33.8081 231.354 33.6002 230.842 33.3283V39.6856H227.291ZM233.265 31.2411C233.633 31.2411 233.977 31.1452 234.296 30.9533C234.632 30.7454 234.904 30.3775 235.112 29.8497C235.32 29.3219 235.424 28.5623 235.424 27.5707C235.424 26.1313 235.216 25.1397 234.8 24.5959C234.4 24.0521 233.889 23.7803 233.265 23.7803C232.769 23.7803 232.313 23.8602 231.897 24.0202C231.482 24.1801 231.13 24.34 230.842 24.5V30.6174C231.162 30.8093 231.538 30.9613 231.969 31.0732C232.401 31.1852 232.833 31.2411 233.265 31.2411ZM241.325 39.6856V21.1174H244.299L244.875 22.3409C245.323 21.989 245.843 21.6691 246.434 21.3813C247.042 21.0774 247.714 20.9254 248.45 20.9254C250.049 20.9254 251.208 21.5172 251.928 22.7007C252.648 23.8842 253.008 25.5075 253.008 27.5707C253.008 28.9461 252.872 30.1296 252.6 31.1212C252.328 32.1128 251.856 32.8725 251.185 33.4002C250.529 33.912 249.617 34.1679 248.45 34.1679C247.842 34.1679 247.218 34.096 246.578 33.952C245.955 33.8081 245.387 33.6002 244.875 33.3283V39.6856H241.325ZM247.298 31.2411C247.666 31.2411 248.01 31.1452 248.33 30.9533C248.666 30.7454 248.937 30.3775 249.145 29.8497C249.353 29.3219 249.457 28.5623 249.457 27.5707C249.457 26.1313 249.249 25.1397 248.833 24.5959C248.434 24.0521 247.922 23.7803 247.298 23.7803C246.802 23.7803 246.347 23.8602 245.931 24.0202C245.515 24.1801 245.163 24.34 244.875 24.5V30.6174C245.195 30.8093 245.571 30.9613 246.003 31.0732C246.434 31.1852 246.866 31.2411 247.298 31.2411ZM261.499 24.8118L262.507 16.4393H264.738L266.249 21.6931L267.497 16.4393H269.728L270.831 24.8118H268.744L268.264 19.7739L266.969 24.8118H265.434L264.09 19.8219L263.586 24.8118H261.499ZM256.773 24.8118V18.1666H254.35V16.4393H261.283V18.1666H258.86V24.8118H256.773Z" fill="white"/>
<circle cx="43" cy="25" r="23.5" stroke="#5D6EFC" stroke-width="3"/>
<circle cx="25" cy="25" r="25" fill="url(#paint0_linear)"/>
<defs>
<linearGradient id="paint0_linear" x1="0" y1="0" x2="50" y2="50" gradientUnits="userSpaceOnUse">
<stop stop-color="#E54CC9"/>
<stop offset="1" stop-color="#A166E1"/>
</linearGradient>
</defs>
</svg>
