<svg width="210" height="85" viewBox="0 0 210 85" fill="none" xmlns="http://www.w3.org/2000/svg">
<path d="M10 5C10 7.76142 7.76142 10 5 10C2.23858 10 0 7.76142 0 5C0 2.23858 2.23858 0 5 0C7.76142 0 10 2.23858 10 5Z" fill="#474546"/>
<path d="M35 5C35 7.76142 32.7614 10 30 10C27.2386 10 25 7.76142 25 5C25 2.23858 27.2386 0 30 0C32.7614 0 35 2.23858 35 5Z" fill="#474546"/>
<path d="M60 5C60 7.76142 57.7614 10 55 10C52.2386 10 50 7.76142 50 5C50 2.23858 52.2386 0 55 0C57.7614 0 60 2.23858 60 5Z" fill="#474546"/>
<path d="M10 30C10 32.7614 7.76142 35 5 35C2.23858 35 0 32.7614 0 30C0 27.2386 2.23858 25 5 25C7.76142 25 10 27.2386 10 30Z" fill="#474546"/>
<path d="M35 30C35 32.7614 32.7614 35 30 35C27.2386 35 25 32.7614 25 30C25 27.2386 27.2386 25 30 25C32.7614 25 35 27.2386 35 30Z" fill="#474546"/>
<path d="M60 30C60 32.7614 57.7614 35 55 35C52.2386 35 50 32.7614 50 30C50 27.2386 52.2386 25 55 25C57.7614 25 60 27.2386 60 30Z" fill="#474546"/>
<path d="M85 5C85 7.76142 82.7614 10 80 10C77.2386 10 75 7.76142 75 5C75 2.23858 77.2386 0 80 0C82.7614 0 85 2.23858 85 5Z" fill="#474546"/>
<path d="M110 5C110 7.76142 107.761 10 105 10C102.239 10 100 7.76142 100 5C100 2.23858 102.239 0 105 0C107.761 0 110 2.23858 110 5Z" fill="#474546"/>
<path d="M135 5C135 7.76142 132.761 10 130 10C127.239 10 125 7.76142 125 5C125 2.23858 127.239 0 130 0C132.761 0 135 2.23858 135 5Z" fill="#474546"/>
<path d="M85 30C85 32.7614 82.7614 35 80 35C77.2386 35 75 32.7614 75 30C75 27.2386 77.2386 25 80 25C82.7614 25 85 27.2386 85 30Z" fill="#474546"/>
<path d="M110 30C110 32.7614 107.761 35 105 35C102.239 35 100 32.7614 100 30C100 27.2386 102.239 25 105 25C107.761 25 110 27.2386 110 30Z" fill="#474546"/>
<path d="M135 30C135 32.7614 132.761 35 130 35C127.239 35 125 32.7614 125 30C125 27.2386 127.239 25 130 25C132.761 25 135 27.2386 135 30Z" fill="#474546"/>
<path d="M160 5C160 7.76142 157.761 10 155 10C152.239 10 150 7.76142 150 5C150 2.23858 152.239 0 155 0C157.761 0 160 2.23858 160 5Z" fill="#474546"/>
<path d="M185 5C185 7.76142 182.761 10 180 10C177.239 10 175 7.76142 175 5C175 2.23858 177.239 0 180 0C182.761 0 185 2.23858 185 5Z" fill="#474546"/>
<path d="M210 5C210 7.76142 207.761 10 205 10C202.239 10 200 7.76142 200 5C200 2.23858 202.239 0 205 0C207.761 0 210 2.23858 210 5Z" fill="#474546"/>
<path d="M160 30C160 32.7614 157.761 35 155 35C152.239 35 150 32.7614 150 30C150 27.2386 152.239 25 155 25C157.761 25 160 27.2386 160 30Z" fill="#474546"/>
<path d="M185 30C185 32.7614 182.761 35 180 35C177.239 35 175 32.7614 175 30C175 27.2386 177.239 25 180 25C182.761 25 185 27.2386 185 30Z" fill="#474546"/>
<path d="M210 30C210 32.7614 207.761 35 205 35C202.239 35 200 32.7614 200 30C200 27.2386 202.239 25 205 25C207.761 25 210 27.2386 210 30Z" fill="#474546"/>
<path d="M10 55C10 57.7614 7.76142 60 5 60C2.23858 60 0 57.7614 0 55C0 52.2386 2.23858 50 5 50C7.76142 50 10 52.2386 10 55Z" fill="#474546"/>
<path d="M35 55C35 57.7614 32.7614 60 30 60C27.2386 60 25 57.7614 25 55C25 52.2386 27.2386 50 30 50C32.7614 50 35 52.2386 35 55Z" fill="#474546"/>
<path d="M60 55C60 57.7614 57.7614 60 55 60C52.2386 60 50 57.7614 50 55C50 52.2386 52.2386 50 55 50C57.7614 50 60 52.2386 60 55Z" fill="#474546"/>
<path d="M10 80C10 82.7614 7.76142 85 5 85C2.23858 85 0 82.7614 0 80C0 77.2386 2.23858 75 5 75C7.76142 75 10 77.2386 10 80Z" fill="#474546"/>
<path d="M35 80C35 82.7614 32.7614 85 30 85C27.2386 85 25 82.7614 25 80C25 77.2386 27.2386 75 30 75C32.7614 75 35 77.2386 35 80Z" fill="#474546"/>
<path d="M60 80C60 82.7614 57.7614 85 55 85C52.2386 85 50 82.7614 50 80C50 77.2386 52.2386 75 55 75C57.7614 75 60 77.2386 60 80Z" fill="#474546"/>
<path d="M85 55C85 57.7614 82.7614 60 80 60C77.2386 60 75 57.7614 75 55C75 52.2386 77.2386 50 80 50C82.7614 50 85 52.2386 85 55Z" fill="#474546"/>
<path d="M110 55C110 57.7614 107.761 60 105 60C102.239 60 100 57.7614 100 55C100 52.2386 102.239 50 105 50C107.761 50 110 52.2386 110 55Z" fill="#474546"/>
<path d="M135 55C135 57.7614 132.761 60 130 60C127.239 60 125 57.7614 125 55C125 52.2386 127.239 50 130 50C132.761 50 135 52.2386 135 55Z" fill="#474546"/>
<path d="M85 80C85 82.7614 82.7614 85 80 85C77.2386 85 75 82.7614 75 80C75 77.2386 77.2386 75 80 75C82.7614 75 85 77.2386 85 80Z" fill="#474546"/>
<path d="M110 80C110 82.7614 107.761 85 105 85C102.239 85 100 82.7614 100 80C100 77.2386 102.239 75 105 75C107.761 75 110 77.2386 110 80Z" fill="#474546"/>
<path d="M135 80C135 82.7614 132.761 85 130 85C127.239 85 125 82.7614 125 80C125 77.2386 127.239 75 130 75C132.761 75 135 77.2386 135 80Z" fill="#474546"/>
<path d="M160 55C160 57.7614 157.761 60 155 60C152.239 60 150 57.7614 150 55C150 52.2386 152.239 50 155 50C157.761 50 160 52.2386 160 55Z" fill="#474546"/>
<path d="M185 55C185 57.7614 182.761 60 180 60C177.239 60 175 57.7614 175 55C175 52.2386 177.239 50 180 50C182.761 50 185 52.2386 185 55Z" fill="#474546"/>
<path d="M210 55C210 57.7614 207.761 60 205 60C202.239 60 200 57.7614 200 55C200 52.2386 202.239 50 205 50C207.761 50 210 52.2386 210 55Z" fill="#474546"/>
<path d="M160 80C160 82.7614 157.761 85 155 85C152.239 85 150 82.7614 150 80C150 77.2386 152.239 75 155 75C157.761 75 160 77.2386 160 80Z" fill="#474546"/>
<path d="M185 80C185 82.7614 182.761 85 180 85C177.239 85 175 82.7614 175 80C175 77.2386 177.239 75 180 75C182.761 75 185 77.2386 185 80Z" fill="#474546"/>
<path d="M210 80C210 82.7614 207.761 85 205 85C202.239 85 200 82.7614 200 80C200 77.2386 202.239 75 205 75C207.761 75 210 77.2386 210 80Z" fill="#474546"/>
</svg>
